<svg width="88" height="110" viewBox="0 0 88 110" fill="none" xmlns="http://www.w3.org/2000/svg">
<path d="M19.7933 89.064V109H16.2093V100.348H5.98934V109H2.43334V89.064H5.98934V97.408H16.2093V89.064H19.7933ZM30.2769 109.224C28.8396 109.224 27.5703 108.925 26.4689 108.328C25.3863 107.731 24.5463 106.881 23.9489 105.78C23.3703 104.66 23.0809 103.353 23.0809 101.86C23.0809 100.367 23.3703 99.0693 23.9489 97.968C24.5463 96.848 25.3863 95.9893 26.4689 95.392C27.5703 94.7947 28.8396 94.496 30.2769 94.496C31.6956 94.496 32.9463 94.7947 34.0289 95.392C35.1116 95.9893 35.9423 96.848 36.5209 97.968C37.1183 99.0693 37.4169 100.367 37.4169 101.86C37.4169 103.353 37.1183 104.66 36.5209 105.78C35.9423 106.881 35.1116 107.731 34.0289 108.328C32.9463 108.925 31.6956 109.224 30.2769 109.224ZM30.2489 106.48C31.4436 106.48 32.3489 106.097 32.9649 105.332C33.5996 104.548 33.9169 103.391 33.9169 101.86C33.9169 100.348 33.5996 99.2 32.9649 98.416C32.3303 97.6133 31.4343 97.212 30.2769 97.212C29.1009 97.212 28.1956 97.6133 27.5609 98.416C26.9263 99.2 26.6089 100.348 26.6089 101.86C26.6089 103.391 26.9169 104.548 27.5329 105.332C28.1676 106.097 29.0729 106.48 30.2489 106.48ZM48.0513 94.524C48.5926 94.524 49.0593 94.5987 49.4513 94.748L49.4233 97.94C48.8259 97.6973 48.2099 97.576 47.5753 97.576C46.3806 97.576 45.4659 97.9213 44.8313 98.612C44.2153 99.3027 43.9073 100.217 43.9073 101.356V109H40.4353V98.864C40.4353 97.3707 40.3606 96.036 40.2113 94.86H43.4873L43.7673 97.352C44.1219 96.4373 44.6819 95.7373 45.4473 95.252C46.2126 94.7667 47.0806 94.524 48.0513 94.524ZM59.0161 94.524C59.5574 94.524 60.0241 94.5987 60.4161 94.748L60.3881 97.94C59.7908 97.6973 59.1748 97.576 58.5401 97.576C57.3454 97.576 56.4308 97.9213 55.7961 98.612C55.1801 99.3027 54.8721 100.217 54.8721 101.356V109H51.4001V98.864C51.4001 97.3707 51.3254 96.036 51.1761 94.86H54.4521L54.7321 97.352C55.0868 96.4373 55.6468 95.7373 56.4121 95.252C57.1774 94.7667 58.0454 94.524 59.0161 94.524ZM68.5035 109.224C67.0662 109.224 65.7968 108.925 64.6955 108.328C63.6128 107.731 62.7728 106.881 62.1755 105.78C61.5968 104.66 61.3075 103.353 61.3075 101.86C61.3075 100.367 61.5968 99.0693 62.1755 97.968C62.7728 96.848 63.6128 95.9893 64.6955 95.392C65.7968 94.7947 67.0662 94.496 68.5035 94.496C69.9222 94.496 71.1728 94.7947 72.2555 95.392C73.3382 95.9893 74.1688 96.848 74.7475 97.968C75.3448 99.0693 75.6435 100.367 75.6435 101.86C75.6435 103.353 75.3448 104.66 74.7475 105.78C74.1688 106.881 73.3382 107.731 72.2555 108.328C71.1728 108.925 69.9222 109.224 68.5035 109.224ZM68.4755 106.48C69.6702 106.48 70.5755 106.097 71.1915 105.332C71.8262 104.548 72.1435 103.391 72.1435 101.86C72.1435 100.348 71.8262 99.2 71.1915 98.416C70.5568 97.6133 69.6608 97.212 68.5035 97.212C67.3275 97.212 66.4222 97.6133 65.7875 98.416C65.1528 99.2 64.8355 100.348 64.8355 101.86C64.8355 103.391 65.1435 104.548 65.7595 105.332C66.3942 106.097 67.2995 106.48 68.4755 106.48ZM86.2778 94.524C86.8191 94.524 87.2858 94.5987 87.6778 94.748L87.6498 97.94C87.0525 97.6973 86.4365 97.576 85.8018 97.576C84.6071 97.576 83.6925 97.9213 83.0578 98.612C82.4418 99.3027 82.1338 100.217 82.1338 101.356V109H78.6618V98.864C78.6618 97.3707 78.5871 96.036 78.4378 94.86H81.7138L81.9938 97.352C82.3485 96.4373 82.9085 95.7373 83.6738 95.252C84.4391 94.7667 85.3071 94.524 86.2778 94.524Z" fill="white"/>
<g clip-path="url(#clip0_1_72)">
<path d="M81.9187 25.1071C81.6821 24.544 81.331 24.0363 80.8878 23.616C80.4445 23.1958 79.9188 22.8722 79.3439 22.6659C78.769 22.4596 78.1575 22.375 77.5482 22.4175C76.9389 22.46 76.345 22.6286 75.8044 22.9128C73.7469 23.9912 71.7699 25.2167 69.8887 26.5796C69.8887 26.3484 69.8887 26.1178 69.8887 25.8865C69.8887 19.0212 67.1615 12.4371 62.307 7.58261C57.4525 2.72811 50.8684 0.00088501 44.0031 0.00088501C37.1378 0.00088501 30.5537 2.72811 25.6992 7.58261C20.8447 12.4371 18.1175 19.0212 18.1175 25.8865V26.5796C16.2363 25.2167 14.2593 23.9912 12.2019 22.9128C11.2277 22.3956 10.0952 22.2622 9.02757 22.5388C7.95994 22.8155 7.03474 23.4822 6.43441 24.4074C5.83409 25.3326 5.60223 26.4491 5.78455 27.5369C5.96688 28.6246 6.55016 29.6045 7.41936 30.2834C11.1291 33.3125 14.4133 36.8281 17.1831 40.7353C16.6488 45.0196 15.8839 49.272 14.8919 53.474L11.4169 67.6152C11.3811 67.7609 11.3758 67.9123 11.401 68.0601C11.4263 68.2079 11.4817 68.3489 11.5637 68.4744C11.6458 68.5999 11.7528 68.7071 11.878 68.7895C12.0033 68.8719 12.1441 68.9277 12.2919 68.9534L16.38 69.6665C17.1056 69.7929 17.7955 70.0738 18.4031 70.49C19.0107 70.9062 19.5218 71.4481 19.9019 72.079L20.3987 72.9046C21.1225 74.102 22.1731 75.0679 23.4269 75.6888C24.6808 76.3097 26.0858 76.5598 27.4769 76.4096L28.4406 76.304C29.1701 76.2249 29.9081 76.3025 30.6053 76.5315C31.3024 76.7606 31.9426 77.1358 32.4831 77.6321L33.1262 78.2234C34.1772 79.1908 35.488 79.83 36.8974 80.0624C38.3068 80.2949 39.7534 80.1103 41.0594 79.5315L41.9169 79.1515C42.5734 78.8622 43.2831 78.7128 44.0006 78.7128C44.7181 78.7128 45.4278 78.8622 46.0844 79.1515L46.9419 79.5315C48.2477 80.1109 49.6944 80.2957 51.104 80.0633C52.5135 79.8309 53.8243 79.1913 54.875 78.2234L55.5181 77.6321C56.0586 77.1359 56.6989 76.7607 57.396 76.5317C58.0931 76.3027 58.8311 76.225 59.5606 76.304L60.5244 76.4096C61.9156 76.5605 63.321 76.3108 64.575 75.6897C65.829 75.0686 66.8794 74.1021 67.6025 72.904L68.1025 72.0796C68.4824 71.4486 68.9934 70.9065 69.6011 70.4902C70.2087 70.0738 70.8987 69.7929 71.6244 69.6665L75.7125 68.9534C75.8602 68.9277 76.0011 68.8719 76.1263 68.7895C76.2516 68.7071 76.3586 68.5999 76.4406 68.4744C76.5227 68.3489 76.5781 68.2079 76.6033 68.0601C76.6286 67.9123 76.6232 67.7609 76.5875 67.6152L73.115 53.4828C72.1215 49.2771 71.3558 45.0209 70.8212 40.7328C73.591 36.8256 76.8752 33.31 80.585 30.2809C81.3449 29.6849 81.8874 28.8552 82.1285 27.92C82.3695 26.9848 82.2958 25.9962 81.9187 25.1071ZM79.2406 28.5553C75.2363 31.82 71.7098 35.6305 68.7644 39.8753C68.6251 40.0902 68.5656 40.3472 68.5962 40.6015C69.1431 45.1076 69.9403 49.5797 70.9844 53.9971L74.1794 66.9971L71.2419 67.5096C70.2077 67.6894 69.2242 68.0894 68.3581 68.6825C67.492 69.2756 66.7634 70.0479 66.2219 70.9471L65.7219 71.7721C65.2137 72.612 64.4766 73.2895 63.5969 73.7251C62.7173 74.1607 61.7316 74.3364 60.7556 74.2315L59.7912 74.1259C58.7516 74.0123 57.6997 74.1224 56.7062 74.4488C55.7126 74.7752 54.8003 75.3104 54.0306 76.0184L53.3875 76.6096C52.6503 77.2888 51.7306 77.7376 50.7416 77.9008C49.7527 78.064 48.7376 77.9346 47.8212 77.5284L46.9637 77.1478C46.0287 76.7339 45.0175 76.5202 43.995 76.5202C42.9725 76.5202 41.9613 76.7339 41.0262 77.1478L40.1687 77.5284C39.2523 77.9343 38.2373 78.0637 37.2484 77.9004C36.2595 77.7372 35.3398 77.2885 34.6025 76.6096L33.9594 76.0184C33.1896 75.3104 32.2774 74.7752 31.2838 74.4488C30.2902 74.1224 29.2384 74.0123 28.1987 74.1259L27.2344 74.2315C26.2585 74.3359 25.2731 74.1601 24.3935 73.7246C23.514 73.2892 22.7767 72.6121 22.2681 71.7728L21.7712 70.9471C21.2297 70.0479 20.5011 69.2756 19.635 68.6825C18.7689 68.0894 17.7854 67.6894 16.7512 67.5096L13.8137 66.9971L17.0112 53.9846C18.054 49.5702 18.8505 45.1012 19.3969 40.5984C19.4275 40.3441 19.368 40.0871 19.2287 39.8721C16.2852 35.6289 12.7611 31.8196 8.75936 28.5553C8.32643 28.2107 8.03758 27.7171 7.94928 27.1709C7.86099 26.6247 7.97961 26.0652 8.28195 25.6018C8.58428 25.1384 9.04859 24.8045 9.58408 24.6652C10.1196 24.526 10.6877 24.5915 11.1775 24.849C13.7615 26.193 16.2039 27.7931 18.4681 29.6253C18.626 29.7561 18.8176 29.84 19.0209 29.8672C19.2242 29.8944 19.431 29.8639 19.6178 29.7792C19.8046 29.6944 19.9638 29.5589 20.0773 29.388C20.1907 29.2171 20.2538 29.0178 20.2594 28.8128C20.2831 27.8384 20.3019 26.864 20.3019 25.889C20.3019 19.6039 22.7986 13.5762 27.2429 9.1319C31.6871 4.68764 37.7148 2.19088 44 2.19088C50.2851 2.19088 56.3128 4.68764 60.7571 9.1319C65.2013 13.5762 67.6981 19.6039 67.6981 25.889C67.6981 26.864 67.7169 27.8384 67.7406 28.8128C67.7456 29.0181 67.8083 29.2178 67.9215 29.3891C68.0347 29.5605 68.1939 29.6965 68.3808 29.7816C68.5677 29.8667 68.7748 29.8974 68.9783 29.8704C69.1819 29.8433 69.3737 29.7594 69.5319 29.6284C71.796 27.796 74.2385 26.1957 76.8225 24.8515C77.0948 24.7084 77.394 24.6235 77.7009 24.6022C78.0078 24.5809 78.3158 24.6236 78.6054 24.7276C78.8949 24.8316 79.1597 24.9947 79.3829 25.2065C79.6061 25.4182 79.7828 25.6741 79.9019 25.9578C80.0923 26.4032 80.1307 26.899 80.0112 27.3685C79.8917 27.838 79.6209 28.2551 79.2406 28.5553Z" fill="white"/>
<path d="M35.9138 13.8281C33.3938 13.8281 31.3438 16.3344 31.3438 19.4144C31.3438 22.4944 33.3938 25 35.9138 25C38.4338 25 40.4844 22.4937 40.4844 19.4144C40.4844 16.335 38.4375 13.8281 35.9138 13.8281ZM35.9138 22.8125C34.6225 22.8125 33.5312 21.2562 33.5312 19.4144C33.5312 17.5725 34.625 16.0156 35.9138 16.0156C37.2025 16.0156 38.2969 17.5719 38.2969 19.4144C38.2969 21.2569 37.2056 22.8125 35.9138 22.8125Z" fill="white"/>
<path d="M52.0856 13.8281C49.5656 13.8281 47.5156 16.3344 47.5156 19.4144C47.5156 22.4944 49.5656 25 52.0856 25C54.6056 25 56.6562 22.4937 56.6562 19.4144C56.6562 16.335 54.6062 13.8281 52.0856 13.8281ZM52.0856 22.8125C50.7944 22.8125 49.7031 21.2562 49.7031 19.4144C49.7031 17.5725 50.7944 16.0156 52.0856 16.0156C53.3769 16.0156 54.4688 17.5719 54.4688 19.4144C54.4688 21.2569 53.375 22.8125 52.0856 22.8125Z" fill="white"/>
<path d="M44 24.2969C41.35 24.2969 39.2731 27.4713 39.2731 31.5238C39.2731 35.5763 41.35 38.75 44 38.75C46.65 38.75 48.7262 35.5756 48.7262 31.5238C48.7262 27.4719 46.65 24.2969 44 24.2969ZM44 36.5625C42.8012 36.5625 41.4606 34.4075 41.4606 31.5238C41.4606 28.64 42.8012 26.4844 44 26.4844C45.1987 26.4844 46.5387 28.6394 46.5387 31.5238C46.5387 34.4081 45.1987 36.5625 44 36.5625Z" fill="white"/>
</g>
<defs>
<clipPath id="clip0_1_72">
<rect width="80" height="80" fill="white" transform="translate(4)"/>
</clipPath>
</defs>
</svg>
