<svg width="126" height="110" viewBox="0 0 126 110" fill="none" xmlns="http://www.w3.org/2000/svg">
<path d="M19.0425 109H15.2345L12.6865 102.364C12.4625 101.748 12.1172 101.319 11.6505 101.076C11.1838 100.833 10.5772 100.712 9.83052 100.712H6.21852V109H2.63452V89.064H11.1745C13.4332 89.064 15.1505 89.5587 16.3265 90.548C17.5025 91.5373 18.0905 92.956 18.0905 94.804C18.0905 96.1293 17.7358 97.2587 17.0265 98.192C16.3358 99.1067 15.3465 99.76 14.0585 100.152C15.2345 100.395 16.0838 101.216 16.6065 102.616L19.0425 109ZM10.6705 97.912C12.0332 97.912 13.0412 97.66 13.6945 97.156C14.3478 96.652 14.6745 95.8867 14.6745 94.86C14.6745 93.852 14.3478 93.1053 13.6945 92.62C13.0598 92.116 12.0518 91.864 10.6705 91.864H6.16252V97.912H10.6705ZM28.4547 109.224C27.0173 109.224 25.748 108.925 24.6467 108.328C23.564 107.731 22.724 106.881 22.1267 105.78C21.548 104.66 21.2587 103.353 21.2587 101.86C21.2587 100.367 21.548 99.0693 22.1267 97.968C22.724 96.848 23.564 95.9893 24.6467 95.392C25.748 94.7947 27.0173 94.496 28.4547 94.496C29.8733 94.496 31.124 94.7947 32.2067 95.392C33.2893 95.9893 34.12 96.848 34.6987 97.968C35.296 99.0693 35.5947 100.367 35.5947 101.86C35.5947 103.353 35.296 104.66 34.6987 105.78C34.12 106.881 33.2893 107.731 32.2067 108.328C31.124 108.925 29.8733 109.224 28.4547 109.224ZM28.4267 106.48C29.6213 106.48 30.5267 106.097 31.1427 105.332C31.7773 104.548 32.0947 103.391 32.0947 101.86C32.0947 100.348 31.7773 99.2 31.1427 98.416C30.508 97.6133 29.612 97.212 28.4547 97.212C27.2787 97.212 26.3733 97.6133 25.7387 98.416C25.104 99.2 24.7867 100.348 24.7867 101.86C24.7867 103.391 25.0947 104.548 25.7107 105.332C26.3453 106.097 27.2507 106.48 28.4267 106.48ZM55.301 94.496C56.9063 94.496 58.101 94.9813 58.885 95.952C59.669 96.904 60.061 98.36 60.061 100.32V109H56.561V100.432C56.561 99.312 56.3743 98.5093 56.001 98.024C55.6463 97.52 55.049 97.268 54.209 97.268C53.2383 97.268 52.473 97.6133 51.913 98.304C51.3717 98.976 51.101 99.9093 51.101 101.104V109H47.601V100.432C47.601 99.3307 47.405 98.528 47.013 98.024C46.6397 97.52 46.0423 97.268 45.221 97.268C44.2503 97.268 43.485 97.6133 42.925 98.304C42.365 98.976 42.085 99.9093 42.085 101.104V109H38.613V98.864C38.613 97.3707 38.5383 96.036 38.389 94.86H41.665L41.917 97.1C42.3277 96.26 42.9157 95.616 43.681 95.168C44.465 94.72 45.361 94.496 46.369 94.496C48.5343 94.496 49.9437 95.392 50.597 97.184C51.045 96.344 51.6797 95.6907 52.501 95.224C53.341 94.7387 54.2743 94.496 55.301 94.496ZM77.3206 94.86V109H73.8766V106.732C73.4472 107.516 72.8312 108.132 72.0286 108.58C71.2259 109.009 70.3112 109.224 69.2846 109.224C68.0526 109.224 66.9606 108.925 66.0086 108.328C65.0566 107.731 64.3192 106.881 63.7966 105.78C63.2739 104.679 63.0126 103.4 63.0126 101.944C63.0126 100.488 63.2739 99.2 63.7966 98.08C64.3379 96.9413 65.0846 96.064 66.0366 95.448C66.9886 94.8133 68.0712 94.496 69.2846 94.496C70.3112 94.496 71.2259 94.72 72.0286 95.168C72.8312 95.5973 73.4472 96.204 73.8766 96.988V94.86H77.3206ZM70.2366 106.48C71.3939 106.48 72.2899 106.079 72.9246 105.276C73.5592 104.473 73.8766 103.344 73.8766 101.888C73.8766 100.395 73.5592 99.2467 72.9246 98.444C72.2899 97.6413 71.3846 97.24 70.2086 97.24C69.0512 97.24 68.1459 97.66 67.4926 98.5C66.8579 99.3213 66.5406 100.469 66.5406 101.944C66.5406 103.4 66.8579 104.52 67.4926 105.304C68.1459 106.088 69.0606 106.48 70.2366 106.48ZM89.2245 94.496C92.6032 94.496 94.2925 96.4373 94.2925 100.32V109H90.7925V100.488C90.7925 99.368 90.5778 98.556 90.1485 98.052C89.7192 97.5293 89.0565 97.268 88.1605 97.268C87.0965 97.268 86.2378 97.6133 85.5845 98.304C84.9312 98.976 84.6045 99.872 84.6045 100.992V109H81.1325V98.864C81.1325 97.3707 81.0578 96.036 80.9085 94.86H84.1845L84.4365 97.184C84.9218 96.3253 85.5752 95.6627 86.3965 95.196C87.2365 94.7293 88.1792 94.496 89.2245 94.496ZM104.416 109.224C102.941 109.224 101.662 108.925 100.58 108.328C99.4969 107.731 98.6663 106.891 98.0876 105.808C97.5089 104.707 97.2196 103.419 97.2196 101.944C97.2196 100.469 97.5183 99.172 98.1156 98.052C98.7316 96.932 99.5903 96.064 100.692 95.448C101.812 94.8133 103.1 94.496 104.556 94.496C105.564 94.496 106.534 94.6547 107.468 94.972C108.42 95.2893 109.176 95.728 109.736 96.288L108.756 98.752C108.158 98.2667 107.524 97.9027 106.852 97.66C106.18 97.3987 105.517 97.268 104.864 97.268C103.594 97.268 102.605 97.6693 101.896 98.472C101.186 99.256 100.832 100.395 100.832 101.888C100.832 103.381 101.177 104.52 101.868 105.304C102.577 106.088 103.576 106.48 104.864 106.48C105.517 106.48 106.18 106.349 106.852 106.088C107.524 105.827 108.158 105.453 108.756 104.968L109.736 107.432C109.138 107.992 108.364 108.431 107.412 108.748C106.46 109.065 105.461 109.224 104.416 109.224ZM124.462 102.112H114.718C114.792 103.624 115.166 104.744 115.838 105.472C116.528 106.181 117.546 106.536 118.89 106.536C120.439 106.536 121.876 106.032 123.202 105.024L124.21 107.432C123.538 107.973 122.707 108.412 121.718 108.748C120.747 109.065 119.758 109.224 118.75 109.224C116.435 109.224 114.615 108.571 113.29 107.264C111.964 105.957 111.302 104.165 111.302 101.888C111.302 100.451 111.591 99.172 112.17 98.052C112.748 96.932 113.56 96.064 114.606 95.448C115.651 94.8133 116.836 94.496 118.162 94.496C120.103 94.496 121.634 95.1307 122.754 96.4C123.892 97.6507 124.462 99.3773 124.462 101.58V102.112ZM118.246 97.016C117.312 97.016 116.547 97.296 115.95 97.856C115.371 98.3973 114.998 99.1907 114.83 100.236H121.41C121.298 99.172 120.971 98.3693 120.43 97.828C119.907 97.2867 119.179 97.016 118.246 97.016Z" fill="white"/>
<g clip-path="url(#clip0_1_82)">
<path d="M102.246 32.2615C102.246 26.499 100.056 21.0958 96.0808 17.0473C92.0832 12.9762 86.7215 10.7344 80.9834 10.7344C73.6748 10.7344 66.9625 14.3981 63.0001 20.424C59.0376 14.398 52.3253 10.7344 45.0167 10.7344C39.2786 10.7344 33.9169 12.9766 29.9193 17.0475C25.9436 21.0961 23.7543 26.4992 23.7543 32.2617C23.7543 37.6626 25.3172 40.8193 26.5732 43.356L26.7097 43.6321C31.9099 54.1666 60.9844 78.3311 62.2194 79.3547L62.9979 80L63.7783 79.3566C63.8073 79.3325 66.5497 77.0696 70.455 73.6821C74.094 76.9283 76.9875 79.3289 77.0185 79.3545L77.7971 79.9999L78.5775 79.3564C79.3414 78.7266 97.323 63.8561 100.4 57.3624L100.486 57.1823C101.228 55.6196 102.246 53.4798 102.246 50.2246C102.246 47.4002 101.419 44.7268 99.8529 42.4431C100.905 40.1868 102.246 36.9331 102.246 32.2615ZM98.2757 56.1316L98.1887 56.3148C95.6841 61.6007 81.3253 73.8575 77.8009 76.8175C76.5929 75.7988 74.1107 73.6825 71.2853 71.1408C67.0072 67.2925 63.5754 63.9408 61.1515 61.2588C60.4783 60.5138 59.8826 59.8204 59.3684 59.1824C59.1626 58.9272 58.97 58.681 58.7905 58.4438C58.1622 57.6135 57.6959 56.8946 57.4012 56.2973L57.3503 56.1943C56.6358 54.7482 55.8258 53.1095 55.8258 50.2251C55.8258 43.9573 60.653 39.0476 66.8153 39.0476C70.9817 39.0476 74.7754 41.3415 76.7159 45.0338L77.799 47.0946L78.8821 45.0338C80.8226 41.3414 84.6163 39.0476 88.7827 39.0476C92.2132 39.0476 95.3793 40.6049 97.4688 43.3199C98.9929 45.3002 99.7983 47.6879 99.7983 50.2251C99.7988 52.9277 98.9898 54.6299 98.2757 56.1316ZM98.1052 40.3637C98.1001 40.3587 98.0943 40.3539 98.0891 40.3487C97.9541 40.2179 97.816 40.0907 97.676 39.9664C97.6516 39.9446 97.6276 39.9226 97.603 39.901C97.4626 39.7779 97.3198 39.6581 97.1749 39.5414C97.1462 39.5184 97.1176 39.4956 97.0887 39.4726C96.9401 39.3548 96.7896 39.2396 96.6365 39.1285C96.623 39.1187 96.6095 39.1096 96.5959 39.0998C96.4476 38.9931 96.2971 38.8899 96.1449 38.7898C96.1215 38.7743 96.0982 38.7584 96.0748 38.7431C95.9187 38.6417 95.7602 38.544 95.6001 38.4495C95.5687 38.4309 95.5369 38.4124 95.5052 38.394C95.3432 38.3001 95.1798 38.209 95.014 38.1221C94.9943 38.1117 94.974 38.102 94.9543 38.0917C94.7938 38.0085 94.6316 37.9287 94.4679 37.8523C94.447 37.8425 94.4263 37.8323 94.4054 37.8226C94.2355 37.7443 94.0637 37.6704 93.8904 37.5995C93.8566 37.5856 93.8227 37.5718 93.7888 37.5582C93.6159 37.489 93.4416 37.4228 93.2657 37.3609C93.2402 37.352 93.2145 37.3435 93.1888 37.3346C93.017 37.2753 92.8437 37.2192 92.669 37.1667C92.6518 37.1615 92.6349 37.1559 92.6177 37.1509C92.4365 37.0975 92.2535 37.0484 92.0695 37.0026C92.0338 36.9939 91.9985 36.9848 91.9629 36.9762C91.7815 36.9325 91.599 36.8921 91.4151 36.856C91.3841 36.85 91.3529 36.8445 91.3218 36.8385C91.1379 36.8037 90.953 36.7718 90.7671 36.7446C90.7566 36.7432 90.7462 36.7412 90.7359 36.7398C90.5448 36.7123 90.3526 36.69 90.1596 36.6704C90.1232 36.6668 90.0868 36.6629 90.0506 36.6595C89.8626 36.642 89.6737 36.6284 89.484 36.6187C89.4491 36.617 89.4141 36.6157 89.3793 36.6143C89.1815 36.6059 88.9829 36.6001 88.7834 36.6001C84.394 36.6001 80.3446 38.6879 77.7995 42.1601C75.2545 38.6881 71.205 36.6001 66.8156 36.6001C66.1345 36.6001 65.4619 36.65 64.8019 36.7482C61.9417 37.1735 59.3183 38.5042 57.2666 40.5998C54.7597 43.1603 53.3791 46.5784 53.3791 50.2246C53.3791 53.6805 54.3647 55.6752 55.1567 57.278L55.2072 57.3801C55.2539 57.4748 55.3039 57.5715 55.3567 57.6699C55.3737 57.7013 55.3927 57.7343 55.4102 57.7662C55.4475 57.8341 55.4847 57.9019 55.525 57.9718C55.548 58.0116 55.5731 58.0529 55.597 58.0933C55.6347 58.1571 55.6719 58.2205 55.7119 58.2859C55.7394 58.3307 55.7689 58.3769 55.7976 58.4224C55.837 58.4851 55.8758 58.5474 55.9172 58.6113C55.9486 58.6599 55.9823 58.7099 56.0148 58.7593C56.0564 58.8223 56.0978 58.8851 56.1416 58.9493C56.1762 59.0005 56.213 59.0529 56.2489 59.1049C56.2934 59.1691 56.3378 59.2335 56.3844 59.299C56.4225 59.3529 56.4623 59.4077 56.5019 59.4626C56.5492 59.5282 56.5966 59.5937 56.6456 59.6605C56.6872 59.7171 56.7305 59.7747 56.7734 59.8321C56.8236 59.899 56.8736 59.966 56.9255 60.0341C56.9703 60.0932 57.0167 60.1529 57.063 60.2127C57.1158 60.2812 57.1691 60.3496 57.2234 60.4191C57.2719 60.4808 57.3217 60.5433 57.3716 60.6058C57.427 60.6755 57.4831 60.7455 57.5405 60.8163C57.592 60.8801 57.6445 60.9444 57.6973 61.009C57.7561 61.0805 57.8155 61.1527 57.8758 61.2254C57.9305 61.2913 57.9859 61.3576 58.042 61.4244C58.1039 61.498 58.1667 61.5722 58.2301 61.6469C58.2878 61.7146 58.3458 61.7827 58.4047 61.8512C58.4695 61.9265 58.5353 62.0026 58.6019 62.0791C58.6628 62.1493 58.7242 62.2197 58.7867 62.2908C58.8542 62.3679 58.9233 62.4457 58.9925 62.5237C59.0564 62.5957 59.1206 62.6679 59.1859 62.741C59.2567 62.8199 59.329 62.8999 59.4014 62.9801C59.4686 63.0543 59.5358 63.1285 59.6045 63.2037C59.6781 63.2843 59.7533 63.3658 59.8286 63.4474C59.899 63.524 59.9692 63.6001 60.0409 63.6774C60.1173 63.7596 60.1956 63.843 60.2736 63.9261C60.3475 64.0051 60.4209 64.0836 60.4962 64.1635C60.5751 64.2471 60.6561 64.3318 60.7365 64.4163C60.8139 64.4976 60.8903 64.5783 60.9692 64.6604C61.0514 64.746 61.1358 64.8332 61.2195 64.9197C61.2997 65.0025 61.3787 65.085 61.4603 65.1688C61.5467 65.2577 61.6358 65.3482 61.7239 65.4382C61.8055 65.5215 61.8859 65.604 61.9689 65.6882C62.0619 65.7824 62.1575 65.8783 62.2523 65.9738C62.3337 66.0558 62.4139 66.1369 62.4967 66.2197C62.5955 66.3186 62.697 66.4193 62.7976 66.5193C62.9584 66.6791 63.1215 66.8407 63.2872 67.0035C63.3898 67.1046 63.4914 67.2047 63.5958 67.3071C63.6889 67.3982 63.7848 67.491 63.8794 67.583C63.9787 67.6796 64.0769 67.7755 64.1778 67.873C64.277 67.9691 64.3789 68.0666 64.4798 68.1638C64.5787 68.259 64.6765 68.3533 64.7769 68.4494C64.8801 68.5483 64.9858 68.6486 65.0906 68.7485C65.192 68.8452 65.2929 68.9413 65.3958 69.0388C65.5006 69.1382 65.6076 69.2389 65.714 69.3394C65.82 69.4393 65.9253 69.5388 66.0326 69.6396C66.1414 69.7418 66.2522 69.845 66.3625 69.9482C66.4695 70.0482 66.5761 70.1479 66.6843 70.2486C66.7989 70.3552 66.9153 70.463 67.0315 70.5707C67.1392 70.6705 67.2468 70.7702 67.3561 70.8708C67.4734 70.979 67.5923 71.0883 67.7112 71.1975C67.8228 71.3002 67.9345 71.4027 68.0476 71.5061C68.1665 71.6149 68.287 71.7247 68.4075 71.8346C68.4795 71.9003 68.5503 71.965 68.6229 72.0313C66.0726 74.2405 64.0486 75.9444 63.0025 76.8185C58.2644 72.8368 33.4191 51.6959 28.904 42.5485L28.7661 42.2699C27.5638 39.8418 26.2013 37.0898 26.2013 32.2614C26.2013 21.5622 34.466 13.1811 45.0167 13.1811C52.1289 13.1811 58.6047 17.0966 61.917 23.3992L63.0001 25.4601L64.0833 23.3992C67.3956 17.0966 73.8714 13.1811 80.9835 13.1811C91.5343 13.1811 99.799 21.5622 99.799 32.2614C99.7988 35.7779 98.9637 38.3618 98.1052 40.3637Z" fill="white"/>
<path d="M46.1131 0H43.6661V7.61795H46.1131V0Z" fill="white"/>
<path d="M55.4592 2.22225L52.2613 9.13617L54.4822 10.1634L57.6802 3.24951L55.4592 2.22225Z" fill="white"/>
<path d="M34.3186 2.22105L32.0977 3.24831L35.2957 10.1622L37.5166 9.13497L34.3186 2.22105Z" fill="white"/>
<path d="M31.4236 33.5975C31.4236 33.4825 31.4247 33.3677 31.4272 33.253L28.9806 33.2022C28.9778 33.3338 28.9766 33.4653 28.9766 33.5975C28.9766 35.2383 29.1434 36.7336 29.4869 38.1687L31.8667 37.5992C31.5684 36.353 31.4236 35.0439 31.4236 33.5975Z" fill="white"/>
<path d="M34.7391 20.1483C31.8082 22.9034 29.8443 26.6278 29.2087 30.6356L31.6255 31.0189C32.1765 27.5443 33.8774 24.317 36.4151 21.9314L34.7391 20.1483Z" fill="white"/>
<path d="M63.6958 41.6933C60.3316 43.2534 58.1313 46.5656 57.9538 50.3375L60.398 50.4524C60.5324 47.5942 62.1907 45.0886 64.7253 43.9132L63.6958 41.6933Z" fill="white"/>
</g>
<defs>
<clipPath id="clip0_1_82">
<rect width="80" height="80" fill="white" transform="translate(23)"/>
</clipPath>
</defs>
</svg>
