<svg width="92" height="110" viewBox="0 0 92 110" fill="none" xmlns="http://www.w3.org/2000/svg">
<path d="M2.2185 89.064H9.5545C12.8212 89.064 15.3505 89.932 17.1425 91.668C18.9532 93.404 19.8585 95.8493 19.8585 99.004C19.8585 102.177 18.9532 104.641 17.1425 106.396C15.3505 108.132 12.8212 109 9.5545 109H2.2185V89.064ZM9.3305 106.06C13.9225 106.06 16.2185 103.708 16.2185 99.004C16.2185 94.3373 13.9225 92.004 9.3305 92.004H5.8305V106.06H9.3305ZM30.9106 94.524C31.452 94.524 31.9186 94.5987 32.3106 94.748L32.2826 97.94C31.6853 97.6973 31.0693 97.576 30.4346 97.576C29.24 97.576 28.3253 97.9213 27.6906 98.612C27.0746 99.3027 26.7666 100.217 26.7666 101.356V109H23.2946V98.864C23.2946 97.3707 23.22 96.036 23.0706 94.86H26.3466L26.6266 97.352C26.9813 96.4373 27.5413 95.7373 28.3066 95.252C29.072 94.7667 29.94 94.524 30.9106 94.524ZM47.51 94.86V109H44.066V106.732C43.6367 107.516 43.0207 108.132 42.218 108.58C41.4154 109.009 40.5007 109.224 39.474 109.224C38.242 109.224 37.15 108.925 36.198 108.328C35.246 107.731 34.5087 106.881 33.986 105.78C33.4634 104.679 33.202 103.4 33.202 101.944C33.202 100.488 33.4634 99.2 33.986 98.08C34.5274 96.9413 35.274 96.064 36.226 95.448C37.178 94.8133 38.2607 94.496 39.474 94.496C40.5007 94.496 41.4154 94.72 42.218 95.168C43.0207 95.5973 43.6367 96.204 44.066 96.988V94.86H47.51ZM40.426 106.48C41.5834 106.48 42.4794 106.079 43.114 105.276C43.7487 104.473 44.066 103.344 44.066 101.888C44.066 100.395 43.7487 99.2467 43.114 98.444C42.4794 97.6413 41.574 97.24 40.398 97.24C39.2407 97.24 38.3354 97.66 37.682 98.5C37.0474 99.3213 36.73 100.469 36.73 101.944C36.73 103.4 37.0474 104.52 37.682 105.304C38.3354 106.088 39.25 106.48 40.426 106.48ZM68.01 94.496C69.6153 94.496 70.81 94.9813 71.594 95.952C72.378 96.904 72.77 98.36 72.77 100.32V109H69.27V100.432C69.27 99.312 69.0833 98.5093 68.71 98.024C68.3553 97.52 67.758 97.268 66.918 97.268C65.9473 97.268 65.182 97.6133 64.622 98.304C64.0806 98.976 63.81 99.9093 63.81 101.104V109H60.31V100.432C60.31 99.3307 60.114 98.528 59.722 98.024C59.3486 97.52 58.7513 97.268 57.93 97.268C56.9593 97.268 56.194 97.6133 55.634 98.304C55.074 98.976 54.794 99.9093 54.794 101.104V109H51.322V98.864C51.322 97.3707 51.2473 96.036 51.098 94.86H54.374L54.626 97.1C55.0366 96.26 55.6246 95.616 56.39 95.168C57.174 94.72 58.07 94.496 59.078 94.496C61.2433 94.496 62.6526 95.392 63.306 97.184C63.754 96.344 64.3886 95.6907 65.21 95.224C66.05 94.7387 66.9833 94.496 68.01 94.496ZM90.0296 94.86V109H86.5856V106.732C86.1562 107.516 85.5402 108.132 84.7376 108.58C83.9349 109.009 83.0202 109.224 81.9936 109.224C80.7616 109.224 79.6696 108.925 78.7176 108.328C77.7656 107.731 77.0282 106.881 76.5056 105.78C75.9829 104.679 75.7216 103.4 75.7216 101.944C75.7216 100.488 75.9829 99.2 76.5056 98.08C77.0469 96.9413 77.7936 96.064 78.7456 95.448C79.6976 94.8133 80.7802 94.496 81.9936 94.496C83.0202 94.496 83.9349 94.72 84.7376 95.168C85.5402 95.5973 86.1562 96.204 86.5856 96.988V94.86H90.0296ZM82.9456 106.48C84.1029 106.48 84.9989 106.079 85.6336 105.276C86.2682 104.473 86.5856 103.344 86.5856 101.888C86.5856 100.395 86.2682 99.2467 85.6336 98.444C84.9989 97.6413 84.0936 97.24 82.9176 97.24C81.7602 97.24 80.8549 97.66 80.2016 98.5C79.5669 99.3213 79.2496 100.469 79.2496 101.944C79.2496 103.4 79.5669 104.52 80.2016 105.304C80.8549 106.088 81.7696 106.48 82.9456 106.48Z" fill="white"/>
<g clip-path="url(#clip0_1_111)">
<path d="M80.9285 3.1296L79.6388 2.80848C65.347 -0.750564 50.4006 -0.750564 36.1088 2.80848L34.8204 3.1296C31.8369 3.87188 29.7435 6.55261 29.7467 9.62705V18.953C23.0884 20.8392 16.6688 23.4859 10.616 26.8409L9.44669 27.4851C6.7568 28.971 5.42984 32.1023 6.2323 35.0688L10.1301 49.6438C13.644 62.725 23.314 73.2714 36.0415 77.9049L40.0596 79.3784C44.8259 81.0925 50.1554 79.6616 53.4214 75.7899L56.1649 72.5127C58.7188 69.4743 60.8148 66.0794 62.3877 62.4346C63.232 62.107 64.0371 61.6832 64.7866 61.1731L68.29 58.7206C79.3851 50.9465 85.9944 38.2518 86.0009 24.7043V9.62705C86.0042 6.55327 83.9114 3.87254 80.9285 3.1296ZM54.114 70.7914L51.3698 74.0712C48.8284 77.0822 44.6834 78.1953 40.9759 76.8611L36.9577 75.3883C25.0517 71.053 16.0056 61.1868 12.718 48.9499L8.81885 34.3749C8.33882 32.5974 9.13343 30.7224 10.7449 29.8316L11.9129 29.1874C17.5641 26.0541 23.5449 23.5565 29.7467 21.7404V24.7043C29.7559 36.7018 34.9506 48.1089 43.9934 55.9928C41.6377 56.9502 39.1506 57.548 36.6163 57.7645L26.5441 58.5813C25.9346 58.6297 25.4349 59.0849 25.3303 59.6879C25.2257 60.2908 25.5429 60.8879 26.1007 61.1384L39.4534 67.1656C42.361 68.4835 45.7945 67.5652 47.6571 64.9715L50.5791 60.9069L50.9611 61.1744C52.9878 62.5896 55.4017 63.3476 57.8738 63.3443C58.2754 63.3443 58.6639 63.2933 59.0589 63.2548C57.7136 65.9531 56.0538 68.4828 54.114 70.7914ZM46.355 57.9011C46.7206 58.1693 47.077 58.4583 47.453 58.7206L48.3804 59.3694L45.4767 63.4097C44.3583 64.9643 42.2982 65.5137 40.554 64.7223L31.9324 60.8382L36.8321 60.4367C40.1309 60.16 43.3551 59.302 46.355 57.9011ZM83.3221 24.7043C83.3169 37.3781 77.134 49.2527 66.7551 56.5258L63.2516 58.9783C60.0196 61.23 55.7274 61.23 52.496 58.9783L48.9939 56.5258C38.6143 49.2533 32.4307 37.3781 32.4255 24.7043V9.62705C32.4255 7.78343 33.6799 6.17657 35.4686 5.72923L36.7582 5.40681C50.6236 1.95306 65.124 1.95306 78.9894 5.40681L80.2791 5.72923C82.0671 6.17657 83.3221 7.78343 83.3221 9.62705V24.7043Z" fill="white"/>
<path d="M52.9079 25.1426L54.7346 23.1819C50.547 19.0041 43.7683 19.0041 39.5808 23.1819L39.5141 23.2486L41.4748 25.0759C42.9934 23.5566 45.0574 22.7084 47.2051 22.7208C49.3535 22.7339 51.407 23.6057 52.9079 25.1426Z" fill="white"/>
<path d="M61.0109 23.1819L60.9442 23.2486L62.9049 25.0759C64.4235 23.5566 66.4875 22.7084 68.6352 22.7208C70.7836 22.7339 72.8371 23.6057 74.3381 25.1426L76.1647 23.1819C71.9771 19.0041 65.1985 19.0041 61.0109 23.1819Z" fill="white"/>
<path d="M25.0981 44.5545C27.1922 43.9927 29.4243 44.3008 31.2875 45.4086L32.536 43.0366C27.4113 40.0779 20.8582 41.8332 17.8989 46.9573L17.8524 47.039L19.0107 47.7087L20.216 48.2954C21.2781 46.4459 23.036 45.0986 25.0981 44.5545Z" fill="white"/>
<path d="M72.3662 37.6109L62.4267 39.4192C59.4157 39.9685 56.3302 39.9685 53.3192 39.4192L43.3778 37.6109C42.7774 37.5017 42.1783 37.8123 41.9226 38.3669C41.6663 38.9215 41.8173 39.5788 42.2902 39.9653L53.6324 49.2422C56.1019 51.2526 59.644 51.2526 62.1135 49.2422L73.4538 39.9627C73.9266 39.5761 74.0783 38.9189 73.822 38.3643C73.5662 37.8097 72.9672 37.499 72.3662 37.6083V37.6109ZM60.4177 47.171C58.9363 48.3789 56.8096 48.3789 55.3283 47.171L47.9963 41.1732L52.8404 42.0535C56.1673 42.6617 59.576 42.6617 62.9022 42.0535L67.747 41.1732L60.4177 47.171Z" fill="white"/>
</g>
<defs>
<clipPath id="clip0_1_111">
<rect width="80" height="80" fill="white" transform="translate(6)"/>
</clipPath>
</defs>
</svg>
