<svg width="114" height="123" viewBox="0 0 114 123" fill="none" xmlns="http://www.w3.org/2000/svg">
<path d="M31.3005 122.252C29.7699 122.252 28.3325 122.047 26.9885 121.636C25.6632 121.225 24.5339 120.637 23.6005 119.872L24.8325 117.24C25.8032 117.968 26.8112 118.509 27.8565 118.864C28.9205 119.2 30.0779 119.368 31.3285 119.368C32.7099 119.368 33.7739 119.125 34.5205 118.64C35.2859 118.155 35.6685 117.473 35.6685 116.596C35.6685 115.849 35.3139 115.28 34.6045 114.888C33.9139 114.477 32.7659 114.095 31.1605 113.74C28.6592 113.199 26.8392 112.499 25.7005 111.64C24.5619 110.781 23.9925 109.531 23.9925 107.888C23.9925 106.712 24.3099 105.667 24.9445 104.752C25.5792 103.837 26.4752 103.119 27.6325 102.596C28.8085 102.073 30.1619 101.812 31.6925 101.812C33.0925 101.812 34.4179 102.027 35.6685 102.456C36.9379 102.867 37.9739 103.445 38.7765 104.192L37.5725 106.824C35.7992 105.405 33.8392 104.696 31.6925 104.696C30.4045 104.696 29.3872 104.967 28.6405 105.508C27.8939 106.031 27.5205 106.749 27.5205 107.664C27.5205 108.448 27.8472 109.045 28.5005 109.456C29.1725 109.867 30.3112 110.249 31.9165 110.604C33.5779 110.996 34.9312 111.425 35.9765 111.892C37.0219 112.34 37.8245 112.928 38.3845 113.656C38.9445 114.365 39.2245 115.261 39.2245 116.344C39.2245 117.539 38.9072 118.584 38.2725 119.48C37.6379 120.357 36.7232 121.039 35.5285 121.524C34.3339 122.009 32.9245 122.252 31.3005 122.252ZM48.7321 122.224C47.2574 122.224 45.9787 121.925 44.8961 121.328C43.8134 120.731 42.9827 119.891 42.4041 118.808C41.8254 117.707 41.5361 116.419 41.5361 114.944C41.5361 113.469 41.8347 112.172 42.4321 111.052C43.0481 109.932 43.9067 109.064 45.0081 108.448C46.1281 107.813 47.4161 107.496 48.8721 107.496C49.8801 107.496 50.8507 107.655 51.7841 107.972C52.7361 108.289 53.4921 108.728 54.0521 109.288L53.0721 111.752C52.4747 111.267 51.8401 110.903 51.1681 110.66C50.4961 110.399 49.8334 110.268 49.1801 110.268C47.9107 110.268 46.9214 110.669 46.2121 111.472C45.5027 112.256 45.1481 113.395 45.1481 114.888C45.1481 116.381 45.4934 117.52 46.1841 118.304C46.8934 119.088 47.8921 119.48 49.1801 119.48C49.8334 119.48 50.4961 119.349 51.1681 119.088C51.8401 118.827 52.4747 118.453 53.0721 117.968L54.0521 120.432C53.4547 120.992 52.6801 121.431 51.7281 121.748C50.7761 122.065 49.7774 122.224 48.7321 122.224ZM56.4021 107.86H59.8741V122H56.4021V107.86ZM60.0701 101.448V104.892H56.1781V101.448H60.0701ZM63.7309 113.04H72.1589V115.84H63.7309V113.04ZM80.4322 107.86H89.7282V122H86.2282V110.492H80.4322V122H76.9322V110.492H74.2162V107.86H76.9322V106.432C76.9322 105.163 77.1282 104.164 77.5202 103.436C77.9122 102.689 78.5469 102.148 79.4242 101.812C80.3202 101.476 81.5336 101.308 83.0642 101.308H84.1002V103.884H83.4282C82.5509 103.884 81.9069 103.959 81.4962 104.108C81.0856 104.239 80.8056 104.509 80.6562 104.92C80.5069 105.312 80.4322 105.947 80.4322 106.824V107.86ZM89.9522 101.308V104.836H86.0042V101.308H89.9522Z" fill="white"/>
<g clip-path="url(#clip0_1_147)">
<path d="M55.1745 73.8369L40.1695 58.0257C39.9721 57.8177 39.8654 57.5399 39.8729 57.2532C39.8804 56.9666 40.0015 56.6947 40.2095 56.4973L64.7578 33.2005C64.7861 33.1737 64.8143 33.1469 64.8425 33.1202C69.7308 29.3947 76.1428 28.4337 84.443 30.1818C84.6574 30.227 84.853 30.3364 85.0038 30.4954C85.1547 30.6543 85.2536 30.8553 85.2876 31.0718C86.6068 39.4584 85.3074 45.8081 81.3254 50.4933C81.3008 50.5226 81.2746 50.5505 81.2468 50.5769L56.6992 73.8729C56.4919 74.0697 56.2151 74.1763 55.9294 74.1696C55.6437 74.1628 55.3723 74.0432 55.1745 73.8369ZM42.482 57.3215L55.9987 71.5643L79.7206 49.0519C83.1785 44.961 84.312 39.575 83.2695 32.1554C75.9152 30.7303 70.4774 31.5806 66.2061 34.8129L42.482 57.3215Z" fill="white"/>
<path d="M34.7153 55.5232C34.6125 55.415 34.5332 55.2867 34.4823 55.1464C34.4315 55.0061 34.4103 54.8568 34.42 54.7079L34.565 52.5552C34.6976 50.3622 35.4596 48.2538 36.7596 46.4827C38.0596 44.7115 39.8427 43.3527 41.8952 42.5688L42.0272 42.5195C46.4229 40.8985 51.2744 41.0355 55.5715 42.9021C55.7268 42.9799 55.861 43.094 55.9628 43.2347C56.0646 43.3753 56.1311 43.5384 56.1565 43.7102C56.182 43.882 56.1656 44.0574 56.109 44.2215C56.0523 44.3856 55.9569 44.5337 55.8308 44.6532L44.7984 55.1232C44.6652 55.2494 44.5022 55.3396 44.3245 55.3854C44.1468 55.4312 43.9605 55.431 43.7829 55.3849C41.1651 54.7836 38.4316 54.9237 35.889 55.7894C35.7194 55.854 35.5363 55.8749 35.3566 55.8502C35.1768 55.8254 35.0062 55.7558 34.8604 55.6478C34.8085 55.6104 34.76 55.5688 34.7153 55.5232ZM42.2716 43.5827L42.6481 44.5951C40.9857 45.2334 39.5426 46.3375 38.4916 47.775C37.4406 49.2126 36.8263 50.9227 36.7223 52.7004L36.6812 53.3057C38.9931 52.7443 41.3994 52.6922 43.7335 53.153L53.087 44.2763C49.7054 43.2636 46.0885 43.3597 42.7655 44.5508L42.2716 43.5827Z" fill="white"/>
<path d="M57.3952 79.4215C57.3513 79.3753 57.3114 79.3254 57.276 79.2723C57.1758 79.1211 57.1152 78.947 57.0998 78.7662C57.0845 78.5854 57.115 78.4037 57.1884 78.2377C58.1858 75.7438 58.4686 73.0214 58.005 70.3758C57.9683 70.196 57.9778 70.0099 58.0328 69.8349C58.0878 69.6599 58.1865 69.5017 58.3195 69.3753L69.3543 58.9031C69.4802 58.7835 69.633 58.696 69.7999 58.648C69.9668 58.5999 70.1428 58.5928 70.313 58.6272C70.4832 58.6616 70.6426 58.7365 70.7778 58.8455C70.9129 58.9545 71.0198 59.0945 71.0894 59.2536C72.7288 63.6425 72.612 68.4945 70.7634 72.7994L70.7072 72.9287C69.8172 74.9374 68.3669 76.647 66.5302 77.8526C64.6935 79.0583 62.5482 79.709 60.3512 79.7267L58.1939 79.759C58.0447 79.7609 57.8967 79.7319 57.7593 79.6738C57.6218 79.6158 57.4979 79.5298 57.3952 79.4215ZM60.2337 70.5396C60.5718 72.8945 60.3939 75.2948 59.7124 77.5742L60.3191 77.5648C62.0992 77.5537 63.8383 77.0297 65.3284 76.0558C66.8184 75.0818 67.9962 73.6991 68.7207 72.0731L69.761 72.384L68.7657 71.9634C70.1288 68.7072 70.4139 65.1002 69.5794 61.6703L60.2337 70.5396Z" fill="white"/>
<path d="M69.2158 45.4927C68.4404 44.6759 67.9246 43.6476 67.7337 42.5377C67.5427 41.4277 67.6852 40.2861 68.1431 39.2572C68.601 38.2283 69.3537 37.3582 70.3061 36.7571C71.2585 36.156 72.3678 35.8508 73.4936 35.8802C74.6195 35.9095 75.7113 36.2721 76.6311 36.922C77.5509 37.5719 78.2573 38.4799 78.661 39.5313C79.0647 40.5827 79.1475 41.7302 78.899 42.8287C78.6505 43.9271 78.0818 44.9272 77.2649 45.7025C76.1688 46.7403 74.7059 47.3011 73.197 47.2617C71.6881 47.2224 70.2563 46.5862 69.2158 45.4927ZM75.9071 39.1426C75.4263 38.6356 74.806 38.2827 74.1247 38.1284C73.4433 37.9741 72.7314 38.0253 72.0792 38.2756C71.4269 38.5259 70.8635 38.964 70.4603 39.5345C70.0571 40.105 69.8321 40.7823 69.8138 41.4807C69.7955 42.1791 69.9848 42.8672 70.3577 43.458C70.7305 44.0488 71.2702 44.5158 71.9085 44.7998C72.5468 45.0839 73.255 45.1722 73.9435 45.0538C74.632 44.9353 75.2699 44.6152 75.7765 44.1342C76.4547 43.489 76.8494 42.6011 76.8738 41.6654C76.8983 40.7296 76.5507 39.8223 75.9071 39.1426Z" fill="white"/>
<path d="M51.1626 76.1017L37.698 61.9137C37.5006 61.7058 37.394 61.4279 37.4015 61.1413C37.409 60.8547 37.53 60.5828 37.738 60.3854L40.9797 57.3089C41.1877 57.1115 41.4656 57.0049 41.7522 57.0124C42.0388 57.0199 42.3107 57.1409 42.5081 57.3489L55.9727 71.5369C56.1701 71.7448 56.2768 72.0227 56.2693 72.3093C56.2618 72.5959 56.1407 72.8678 55.9327 73.0652L52.691 76.1417C52.483 76.3391 52.2051 76.4457 51.9185 76.4382C51.6319 76.4307 51.36 76.3097 51.1626 76.1017ZM40.0105 61.2095L51.9868 73.8292L53.6602 72.2411L41.684 59.6214L40.0105 61.2095Z" fill="white"/>
<path d="M30.1693 82.6484C29.7004 82.1059 29.404 81.4359 29.3182 80.724C29.2323 80.0121 29.3608 79.2908 29.6873 78.6524C30.5727 76.4952 31.1733 74.2317 31.4739 71.9193C32.1117 67.971 32.6154 64.852 39.5515 61.772C39.7556 61.6812 39.9827 61.6558 40.2018 61.6993C40.4208 61.7428 40.621 61.8531 40.7748 62.015L51.2113 73.0122C51.3652 73.1743 51.4652 73.38 51.4973 73.6012C51.5295 73.8224 51.4923 74.0481 51.3908 74.2473C50.5365 76.0714 49.3819 77.739 47.9751 79.1805C45.7622 81.2806 43.4963 81.5471 40.8729 81.8562C38.5691 82.0569 36.3004 82.5511 34.1219 83.3268C33.4716 83.6207 32.7483 83.7137 32.0448 83.5936C31.3413 83.4736 30.6898 83.146 30.1738 82.6531L30.1693 82.6484ZM39.7386 64.0641C34.5354 66.5264 34.1988 68.6076 33.6091 72.2658C33.2803 74.7497 32.6317 77.1807 31.6794 79.4983C31.3853 80.1903 31.408 80.8126 31.7391 81.1615C32.0666 81.5066 32.6793 81.557 33.3766 81.3007C35.715 80.4669 38.1497 79.9327 40.6224 79.7108C43.1346 79.4133 44.7975 79.2197 46.489 77.6145C47.5487 76.5334 48.4342 75.2943 49.1139 73.9415L39.7386 64.0641Z" fill="white"/>
<path d="M37.5607 75.5816C37.2517 75.2291 37.0538 74.7932 36.9918 74.3285C36.9298 73.8639 37.0065 73.3914 37.2122 72.9702C37.6475 71.9084 37.9432 70.7947 38.0919 69.6568C38.4169 67.6671 38.6989 65.9509 41.9449 64.3473C42.1518 64.2462 42.3855 64.2138 42.6121 64.2548C42.8387 64.2958 43.0462 64.4081 43.2045 64.5753L48.786 70.4565C48.9443 70.6234 49.0453 70.8365 49.0743 71.0647C49.1033 71.2929 49.0587 71.5244 48.947 71.7256C48.5392 72.4994 48.0175 73.2075 47.3993 73.8263C46.3118 74.7842 44.9167 75.3202 43.4675 75.3369C42.3344 75.4367 41.2185 75.6798 40.1466 76.0606C39.7171 76.2448 39.2427 76.2979 38.7831 76.2132C38.3236 76.1286 37.8993 75.9099 37.5636 75.5847L37.5607 75.5816ZM42.201 66.6588C40.6135 67.5961 40.4796 68.4177 40.2209 70.0031C40.0457 71.3111 39.7025 72.5911 39.1998 73.8114C39.1533 73.9022 39.1324 74.0039 39.1394 74.1057C39.1408 74.082 39.2385 74.0877 39.396 74.0291C40.6291 73.5875 41.9133 73.3048 43.2178 73.1877C44.1986 73.2121 45.1552 72.8817 45.9117 72.2572C46.1924 71.9815 46.4411 71.6751 46.6529 71.3436L42.201 66.6588Z" fill="white"/>
<path d="M52.0402 61.7927C51.8428 61.5847 51.7361 61.3069 51.7436 61.0202C51.7511 60.7336 51.8722 60.4617 52.0802 60.2643L56.677 55.9019C56.8849 55.7045 57.1628 55.5979 57.4494 55.6054C57.736 55.6129 58.0079 55.7339 58.2053 55.9419C58.4027 56.1499 58.5094 56.4277 58.5019 56.7143C58.4944 57.001 58.3733 57.2729 58.1653 57.4702L53.5685 61.8327C53.3606 62.0301 53.0827 62.1367 52.7961 62.1292C52.5095 62.1217 52.2375 62.0007 52.0402 61.7927Z" fill="white"/>
<path d="M48.5617 58.0885C48.3644 57.8805 48.2577 57.6027 48.2652 57.316C48.2727 57.0294 48.3937 56.7575 48.6017 56.5601L50.6233 54.6416C50.8313 54.4442 51.1091 54.3376 51.3958 54.3451C51.6824 54.3526 51.9543 54.4736 52.1517 54.6816C52.349 54.8896 52.4557 55.1674 52.4482 55.4541C52.4407 55.7407 52.3197 56.0126 52.1117 56.21L50.0901 58.1285C49.8821 58.3258 49.6043 58.4325 49.3176 58.425C49.031 58.4175 48.7591 58.2965 48.5617 58.0885Z" fill="white"/>
<path d="M55.5483 65.4503C55.3509 65.2424 55.2442 64.9645 55.2517 64.6779C55.2592 64.3913 55.3803 64.1194 55.5882 63.922L57.6098 62.0035C57.8178 61.8061 58.0956 61.6994 58.3823 61.7069C58.6689 61.7144 58.9408 61.8355 59.1382 62.0434C59.3355 62.2514 59.4422 62.5293 59.4347 62.8159C59.4272 63.1025 59.3062 63.3744 59.0982 63.5718L57.0766 65.4903C56.8686 65.6877 56.5908 65.7944 56.3042 65.7869C56.0175 65.7794 55.7456 65.6583 55.5483 65.4503Z" fill="white"/>
</g>
<defs>
<clipPath id="clip0_1_147">
<rect width="80" height="80" fill="white" transform="translate(58.0294 -6.10352e-05) rotate(46.4984)"/>
</clipPath>
</defs>
</svg>
