<svg width="109" height="121" viewBox="0 0 109 121" fill="none" xmlns="http://www.w3.org/2000/svg">
<path d="M11.4363 114.252C9.47633 114.252 7.759 113.832 6.28433 112.992C4.82833 112.152 3.70833 110.967 2.92433 109.436C2.14033 107.887 1.74833 106.076 1.74833 104.004C1.74833 101.951 2.14033 100.159 2.92433 98.628C3.70833 97.0787 4.82833 95.8933 6.28433 95.072C7.759 94.232 9.47633 93.812 11.4363 93.812C12.7803 93.812 14.0403 94.0267 15.2163 94.456C16.411 94.8667 17.4003 95.4453 18.1843 96.192L17.0083 98.824C16.1123 98.096 15.2163 97.5733 14.3203 97.256C13.443 96.92 12.5003 96.752 11.4923 96.752C9.56966 96.752 8.07633 97.3773 7.01233 98.628C5.967 99.8787 5.44433 101.671 5.44433 104.004C5.44433 106.356 5.967 108.167 7.01233 109.436C8.05766 110.687 9.551 111.312 11.4923 111.312C12.5003 111.312 13.443 111.153 14.3203 110.836C15.2163 110.5 16.1123 109.968 17.0083 109.24L18.1843 111.872C17.4003 112.619 16.411 113.207 15.2163 113.636C14.0403 114.047 12.7803 114.252 11.4363 114.252ZM27.4469 114.224C26.0095 114.224 24.7402 113.925 23.6389 113.328C22.5562 112.731 21.7162 111.881 21.1189 110.78C20.5402 109.66 20.2509 108.353 20.2509 106.86C20.2509 105.367 20.5402 104.069 21.1189 102.968C21.7162 101.848 22.5562 100.989 23.6389 100.392C24.7402 99.7947 26.0095 99.496 27.4469 99.496C28.8655 99.496 30.1162 99.7947 31.1989 100.392C32.2815 100.989 33.1122 101.848 33.6909 102.968C34.2882 104.069 34.5869 105.367 34.5869 106.86C34.5869 108.353 34.2882 109.66 33.6909 110.78C33.1122 111.881 32.2815 112.731 31.1989 113.328C30.1162 113.925 28.8655 114.224 27.4469 114.224ZM27.4189 111.48C28.6135 111.48 29.5189 111.097 30.1349 110.332C30.7695 109.548 31.0869 108.391 31.0869 106.86C31.0869 105.348 30.7695 104.2 30.1349 103.416C29.5002 102.613 28.6042 102.212 27.4469 102.212C26.2709 102.212 25.3655 102.613 24.7309 103.416C24.0962 104.2 23.7789 105.348 23.7789 106.86C23.7789 108.391 24.0869 109.548 24.7029 110.332C25.3375 111.097 26.2429 111.48 27.4189 111.48ZM54.2932 99.496C55.8985 99.496 57.0932 99.9813 57.8772 100.952C58.6612 101.904 59.0532 103.36 59.0532 105.32V114H55.5532V105.432C55.5532 104.312 55.3665 103.509 54.9932 103.024C54.6385 102.52 54.0412 102.268 53.2012 102.268C52.2305 102.268 51.4652 102.613 50.9052 103.304C50.3638 103.976 50.0932 104.909 50.0932 106.104V114H46.5932V105.432C46.5932 104.331 46.3972 103.528 46.0052 103.024C45.6318 102.52 45.0345 102.268 44.2132 102.268C43.2425 102.268 42.4772 102.613 41.9172 103.304C41.3572 103.976 41.0772 104.909 41.0772 106.104V114H37.6052V103.864C37.6052 102.371 37.5305 101.036 37.3812 99.86H40.6572L40.9092 102.1C41.3198 101.26 41.9078 100.616 42.6732 100.168C43.4572 99.72 44.3532 99.496 45.3612 99.496C47.5265 99.496 48.9358 100.392 49.5892 102.184C50.0372 101.344 50.6718 100.691 51.4932 100.224C52.3332 99.7387 53.2665 99.496 54.2932 99.496ZM75.1648 107.112H65.4208C65.4954 108.624 65.8688 109.744 66.5408 110.472C67.2314 111.181 68.2488 111.536 69.5928 111.536C71.1421 111.536 72.5794 111.032 73.9048 110.024L74.9128 112.432C74.2408 112.973 73.4101 113.412 72.4208 113.748C71.4501 114.065 70.4608 114.224 69.4528 114.224C67.1381 114.224 65.3181 113.571 63.9928 112.264C62.6674 110.957 62.0048 109.165 62.0048 106.888C62.0048 105.451 62.2941 104.172 62.8728 103.052C63.4514 101.932 64.2634 101.064 65.3088 100.448C66.3541 99.8133 67.5394 99.496 68.8648 99.496C70.8061 99.496 72.3368 100.131 73.4568 101.4C74.5954 102.651 75.1648 104.377 75.1648 106.58V107.112ZM68.9488 102.016C68.0154 102.016 67.2501 102.296 66.6528 102.856C66.0741 103.397 65.7008 104.191 65.5328 105.236H72.1128C72.0008 104.172 71.6741 103.369 71.1328 102.828C70.6101 102.287 69.8821 102.016 68.9488 102.016ZM91.6526 93.392V114H88.2086V111.732C87.7793 112.516 87.1633 113.132 86.3606 113.58C85.5579 114.009 84.6433 114.224 83.6166 114.224C82.4033 114.224 81.3206 113.916 80.3686 113.3C79.4166 112.684 78.6699 111.816 78.1286 110.696C77.6059 109.557 77.3446 108.26 77.3446 106.804C77.3446 105.348 77.6059 104.069 78.1286 102.968C78.6513 101.867 79.3886 101.017 80.3406 100.42C81.2926 99.804 82.3846 99.496 83.6166 99.496C84.6246 99.496 85.5206 99.7107 86.3046 100.14C87.1073 100.551 87.7233 101.139 88.1526 101.904V93.392H91.6526ZM84.5406 111.48C85.6979 111.48 86.5939 111.079 87.2286 110.276C87.8819 109.473 88.2086 108.335 88.2086 106.86C88.2086 105.385 87.8913 104.247 87.2566 103.444C86.6219 102.641 85.7259 102.24 84.5686 102.24C83.3926 102.24 82.4779 102.641 81.8246 103.444C81.1899 104.228 80.8726 105.348 80.8726 106.804C80.8726 108.279 81.1899 109.427 81.8246 110.248C82.4779 111.069 83.3833 111.48 84.5406 111.48ZM108.849 99.86L102.269 114.952C101.522 116.707 100.57 117.985 99.4125 118.788C98.2552 119.591 96.8272 120.123 95.1285 120.384L94.3445 117.696C95.6699 117.397 96.6592 117.015 97.3125 116.548C97.9845 116.1 98.5259 115.428 98.9365 114.532L99.3845 113.496L93.5045 99.86H97.1725L101.233 110.024L105.377 99.86H108.849Z" fill="white"/>
<g clip-path="url(#clip0_1_163)">
<path d="M70.8121 49.1391C70.0956 48.4974 68.9947 48.56 68.3565 49.2748C64.7286 53.3287 59.4973 55.6522 53.9999 55.6522C48.5043 55.6522 43.2712 53.3287 39.6434 49.2748C39.0017 48.56 37.9043 48.4974 37.1878 49.1391C36.4712 49.7791 36.4121 50.8783 37.0521 51.5948C41.3391 56.3844 47.5165 59.1305 53.9999 59.1305C60.4852 59.1305 66.6626 56.3826 70.9478 51.5948C71.5878 50.8783 71.5269 49.7791 70.8121 49.1391Z" fill="white"/>
<path d="M54 0C31.9443 0 14 17.9443 14 40C14 62.0556 31.9443 80 54 80C76.0556 80 94 62.0556 94 40C94 17.9443 76.0556 0 54 0ZM54 76.5217C33.8609 76.5217 17.4783 60.1391 17.4783 40C17.4783 19.8609 33.8609 3.47826 54 3.47826C74.1391 3.47826 90.5217 19.8609 90.5217 40C90.5217 60.1391 74.1391 76.5217 54 76.5217Z" fill="white"/>
<path d="M67.913 27.8261C63.1182 27.8261 59.2174 31.727 59.2174 36.5218C59.2174 37.4818 59.9965 38.2609 60.9565 38.2609C61.9165 38.2609 62.6956 37.4818 62.6956 36.5218C62.6956 33.6452 65.0365 31.3044 67.913 31.3044C70.7895 31.3044 73.1304 33.6452 73.1304 36.5218C73.1304 37.4818 73.9095 38.2609 74.8695 38.2609C75.8295 38.2609 76.6087 37.4818 76.6087 36.5218C76.6087 31.727 72.7078 27.8261 67.913 27.8261Z" fill="white"/>
<path d="M45.3044 36.5218C45.3044 37.4818 46.0835 38.2609 47.0435 38.2609C48.0035 38.2609 48.7826 37.4818 48.7826 36.5218C48.7826 31.727 44.8817 27.8261 40.087 27.8261C35.2922 27.8261 31.3913 31.727 31.3913 36.5218C31.3913 37.4818 32.1704 38.2609 33.1304 38.2609C34.0904 38.2609 34.8696 37.4818 34.8696 36.5218C34.8696 33.6452 37.2104 31.3044 40.087 31.3044C42.9635 31.3044 45.3044 33.6452 45.3044 36.5218Z" fill="white"/>
</g>
<defs>
<clipPath id="clip0_1_163">
<rect width="80" height="80" fill="white" transform="translate(14)"/>
</clipPath>
</defs>
</svg>
