<svg width="182" height="116" viewBox="0 0 182 116" fill="none" xmlns="http://www.w3.org/2000/svg">
<path d="M2.64819 89.064H9.98419C13.2509 89.064 15.7802 89.932 17.5722 91.668C19.3829 93.404 20.2882 95.8493 20.2882 99.004C20.2882 102.177 19.3829 104.641 17.5722 106.396C15.7802 108.132 13.2509 109 9.98419 109H2.64819V89.064ZM9.76019 106.06C14.3522 106.06 16.6482 103.708 16.6482 99.004C16.6482 94.3373 14.3522 92.004 9.76019 92.004H6.26019V106.06H9.76019ZM30.1363 109.224C28.699 109.224 27.4296 108.925 26.3283 108.328C25.2456 107.731 24.4056 106.881 23.8083 105.78C23.2296 104.66 22.9403 103.353 22.9403 101.86C22.9403 100.367 23.2296 99.0693 23.8083 97.968C24.4056 96.848 25.2456 95.9893 26.3283 95.392C27.4296 94.7947 28.699 94.496 30.1363 94.496C31.555 94.496 32.8056 94.7947 33.8883 95.392C34.971 95.9893 35.8016 96.848 36.3803 97.968C36.9776 99.0693 37.2763 100.367 37.2763 101.86C37.2763 103.353 36.9776 104.66 36.3803 105.78C35.8016 106.881 34.971 107.731 33.8883 108.328C32.8056 108.925 31.555 109.224 30.1363 109.224ZM30.1083 106.48C31.303 106.48 32.2083 106.097 32.8243 105.332C33.459 104.548 33.7763 103.391 33.7763 101.86C33.7763 100.348 33.459 99.2 32.8243 98.416C32.1896 97.6133 31.2936 97.212 30.1363 97.212C28.9603 97.212 28.055 97.6133 27.4203 98.416C26.7856 99.2 26.4683 100.348 26.4683 101.86C26.4683 103.391 26.7763 104.548 27.3923 105.332C28.027 106.097 28.9323 106.48 30.1083 106.48ZM46.7066 109.224C45.232 109.224 43.9533 108.925 42.8706 108.328C41.788 107.731 40.9573 106.891 40.3786 105.808C39.8 104.707 39.5106 103.419 39.5106 101.944C39.5106 100.469 39.8093 99.172 40.4066 98.052C41.0226 96.932 41.8813 96.064 42.9826 95.448C44.1026 94.8133 45.3906 94.496 46.8466 94.496C47.8546 94.496 48.8253 94.6547 49.7586 94.972C50.7106 95.2893 51.4666 95.728 52.0266 96.288L51.0466 98.752C50.4493 98.2667 49.8146 97.9027 49.1426 97.66C48.4706 97.3987 47.808 97.268 47.1546 97.268C45.8853 97.268 44.896 97.6693 44.1866 98.472C43.4773 99.256 43.1226 100.395 43.1226 101.888C43.1226 103.381 43.468 104.52 44.1586 105.304C44.868 106.088 45.8666 106.48 47.1546 106.48C47.808 106.48 48.4706 106.349 49.1426 106.088C49.8146 105.827 50.4493 105.453 51.0466 104.968L52.0266 107.432C51.4293 107.992 50.6546 108.431 49.7026 108.748C48.7506 109.065 47.752 109.224 46.7066 109.224ZM67.2567 94.86V109H63.8407V106.816C63.3927 107.6 62.7953 108.197 62.0487 108.608C61.302 109.019 60.4433 109.224 59.4727 109.224C56.0193 109.224 54.2927 107.283 54.2927 103.4V94.86H57.7647V103.428C57.7647 104.455 57.97 105.211 58.3807 105.696C58.81 106.181 59.4633 106.424 60.3407 106.424C61.3673 106.424 62.1887 106.088 62.8047 105.416C63.4207 104.744 63.7287 103.848 63.7287 102.728V94.86H67.2567ZM87.7443 94.496C89.3497 94.496 90.5443 94.9813 91.3283 95.952C92.1123 96.904 92.5043 98.36 92.5043 100.32V109H89.0043V100.432C89.0043 99.312 88.8177 98.5093 88.4443 98.024C88.0897 97.52 87.4923 97.268 86.6523 97.268C85.6817 97.268 84.9163 97.6133 84.3563 98.304C83.815 98.976 83.5443 99.9093 83.5443 101.104V109H80.0443V100.432C80.0443 99.3307 79.8483 98.528 79.4563 98.024C79.083 97.52 78.4857 97.268 77.6643 97.268C76.6937 97.268 75.9283 97.6133 75.3683 98.304C74.8083 98.976 74.5283 99.9093 74.5283 101.104V109H71.0563V98.864C71.0563 97.3707 70.9817 96.036 70.8323 94.86H74.1083L74.3603 97.1C74.771 96.26 75.359 95.616 76.1243 95.168C76.9083 94.72 77.8043 94.496 78.8123 94.496C80.9777 94.496 82.387 95.392 83.0403 97.184C83.4883 96.344 84.123 95.6907 84.9443 95.224C85.7843 94.7387 86.7177 94.496 87.7443 94.496ZM108.616 102.112H98.8719C98.9466 103.624 99.3199 104.744 99.9919 105.472C100.683 106.181 101.7 106.536 103.044 106.536C104.593 106.536 106.031 106.032 107.356 105.024L108.364 107.432C107.692 107.973 106.861 108.412 105.872 108.748C104.901 109.065 103.912 109.224 102.904 109.224C100.589 109.224 98.7693 108.571 97.4439 107.264C96.1186 105.957 95.4559 104.165 95.4559 101.888C95.4559 100.451 95.7453 99.172 96.3239 98.052C96.9026 96.932 97.7146 96.064 98.7599 95.448C99.8053 94.8133 100.991 94.496 102.316 94.496C104.257 94.496 105.788 95.1307 106.908 96.4C108.047 97.6507 108.616 99.3773 108.616 101.58V102.112ZM102.4 97.016C101.467 97.016 100.701 97.296 100.104 97.856C99.5253 98.3973 99.1519 99.1907 98.9839 100.236H105.564C105.452 99.172 105.125 98.3693 104.584 97.828C104.061 97.2867 103.333 97.016 102.4 97.016ZM119.672 94.496C123.05 94.496 124.74 96.4373 124.74 100.32V109H121.24V100.488C121.24 99.368 121.025 98.556 120.596 98.052C120.166 97.5293 119.504 97.268 118.608 97.268C117.544 97.268 116.685 97.6133 116.032 98.304C115.378 98.976 115.052 99.872 115.052 100.992V109H111.58V98.864C111.58 97.3707 111.505 96.036 111.356 94.86H114.632L114.884 97.184C115.369 96.3253 116.022 95.6627 116.844 95.196C117.684 94.7293 118.626 94.496 119.672 94.496ZM132.903 97.492V103.82C132.903 105.481 133.678 106.312 135.227 106.312C135.656 106.312 136.123 106.237 136.627 106.088V108.86C136.011 109.084 135.264 109.196 134.387 109.196C132.782 109.196 131.55 108.748 130.691 107.852C129.832 106.956 129.403 105.668 129.403 103.988V97.492H126.687V94.86H129.403V91.416L132.903 90.24V94.86H136.655V97.492H132.903ZM152.584 94.86V109H149.14V106.732C148.711 107.516 148.095 108.132 147.292 108.58C146.49 109.009 145.575 109.224 144.548 109.224C143.316 109.224 142.224 108.925 141.272 108.328C140.32 107.731 139.583 106.881 139.06 105.78C138.538 104.679 138.276 103.4 138.276 101.944C138.276 100.488 138.538 99.2 139.06 98.08C139.602 96.9413 140.348 96.064 141.3 95.448C142.252 94.8133 143.335 94.496 144.548 94.496C145.575 94.496 146.49 94.72 147.292 95.168C148.095 95.5973 148.711 96.204 149.14 96.988V94.86H152.584ZM145.5 106.48C146.658 106.48 147.554 106.079 148.188 105.276C148.823 104.473 149.14 103.344 149.14 101.888C149.14 100.395 148.823 99.2467 148.188 98.444C147.554 97.6413 146.648 97.24 145.472 97.24C144.315 97.24 143.41 97.66 142.756 98.5C142.122 99.3213 141.804 100.469 141.804 101.944C141.804 103.4 142.122 104.52 142.756 105.304C143.41 106.088 144.324 106.48 145.5 106.48ZM164.012 94.524C164.554 94.524 165.02 94.5987 165.412 94.748L165.384 97.94C164.787 97.6973 164.171 97.576 163.536 97.576C162.342 97.576 161.427 97.9213 160.792 98.612C160.176 99.3027 159.868 100.217 159.868 101.356V109H156.396V98.864C156.396 97.3707 156.322 96.036 156.172 94.86H159.448L159.728 97.352C160.083 96.4373 160.643 95.7373 161.408 95.252C162.174 94.7667 163.042 94.524 164.012 94.524ZM181.593 94.86L175.013 109.952C174.266 111.707 173.314 112.985 172.157 113.788C170.999 114.591 169.571 115.123 167.873 115.384L167.089 112.696C168.414 112.397 169.403 112.015 170.057 111.548C170.729 111.1 171.27 110.428 171.681 109.532L172.129 108.496L166.249 94.86H169.917L173.977 105.024L178.121 94.86H181.593Z" fill="white"/>
<path d="M73.6219 54.4171H75.8891C76.1377 54.4171 76.3762 54.3184 76.552 54.1426C76.7278 53.9667 76.8266 53.7283 76.8266 53.4796C76.8266 53.231 76.7278 52.9926 76.552 52.8167C76.3762 52.6409 76.1377 52.5421 75.8891 52.5421H73.6219C73.3732 52.5421 73.1348 52.6409 72.959 52.8167C72.7832 52.9926 72.6844 53.231 72.6844 53.4796C72.6844 53.7283 72.7832 53.9667 72.959 54.1426C73.1348 54.3184 73.3732 54.4171 73.6219 54.4171Z" fill="white"/>
<path d="M84.3578 56.7906H87.2579C87.5065 56.7906 87.7449 56.6918 87.9208 56.516C88.0966 56.3402 88.1954 56.1018 88.1954 55.8531C88.1954 55.6045 88.0966 55.366 87.9208 55.1902C87.7449 55.0144 87.5065 54.9156 87.2579 54.9156H84.3578C84.1092 54.9156 83.8708 55.0144 83.6949 55.1902C83.5191 55.366 83.4203 55.6045 83.4203 55.8531C83.4203 56.1018 83.5191 56.3402 83.6949 56.516C83.8708 56.6918 84.1092 56.7906 84.3578 56.7906Z" fill="white"/>
<path d="M100.789 61.6937H103.214C103.463 61.6937 103.701 61.5949 103.877 61.4191C104.053 61.2433 104.152 61.0048 104.152 60.7562C104.152 60.5075 104.053 60.2691 103.877 60.0933C103.701 59.9174 103.463 59.8187 103.214 59.8187H100.789C100.54 59.8187 100.302 59.9174 100.126 60.0933C99.9503 60.2691 99.8516 60.5075 99.8516 60.7562C99.8516 61.0048 99.9503 61.2433 100.126 61.4191C100.302 61.5949 100.54 61.6937 100.789 61.6937Z" fill="white"/>
<path d="M75.8484 61.2313C75.8484 61.4799 75.9472 61.7184 76.123 61.8942C76.2989 62.07 76.5373 62.1688 76.7859 62.1688H79.0531C79.3018 62.1688 79.5402 62.07 79.7161 61.8942C79.8919 61.7184 79.9906 61.4799 79.9906 61.2313C79.9906 60.9827 79.8919 60.7442 79.7161 60.5684C79.5402 60.3926 79.3018 60.2938 79.0531 60.2938H76.7859C76.5373 60.2938 76.2989 60.3926 76.123 60.5684C75.9472 60.7442 75.8484 60.9827 75.8484 61.2313Z" fill="white"/>
<path d="M114.088 63.2875C114.088 63.5361 114.186 63.7746 114.362 63.9504C114.538 64.1262 114.776 64.225 115.025 64.225H117.767C118.016 64.225 118.254 64.1262 118.43 63.9504C118.606 63.7746 118.705 63.5361 118.705 63.2875C118.705 63.0389 118.606 62.8004 118.43 62.6246C118.254 62.4488 118.016 62.35 117.767 62.35H115.025C114.776 62.35 114.538 62.4488 114.362 62.6246C114.186 62.8004 114.088 63.0389 114.088 63.2875Z" fill="white"/>
<path d="M64.1844 62.35H61.4422C61.1936 62.35 60.9551 62.4488 60.7793 62.6246C60.6035 62.8004 60.5047 63.0389 60.5047 63.2875C60.5047 63.5361 60.6035 63.7746 60.7793 63.9504C60.9551 64.1262 61.1936 64.225 61.4422 64.225H64.1844C64.433 64.225 64.6715 64.1262 64.8473 63.9504C65.0231 63.7746 65.1219 63.5361 65.1219 63.2875C65.1219 63.0389 65.0231 62.8004 64.8473 62.6246C64.6715 62.4488 64.433 62.35 64.1844 62.35Z" fill="white"/>
<path d="M94.3235 54.7079H96.5907C96.8393 54.7079 97.0778 54.6091 97.2536 54.4333C97.4294 54.2575 97.5282 54.019 97.5282 53.7704C97.5282 53.5217 97.4294 53.2833 97.2536 53.1074C97.0778 52.9316 96.8393 52.8329 96.5907 52.8329H94.3235C94.0748 52.8329 93.8364 52.9316 93.6606 53.1074C93.4848 53.2833 93.386 53.5217 93.386 53.7704C93.386 54.019 93.4848 54.2575 93.6606 54.4333C93.8364 54.6091 94.0748 54.7079 94.3235 54.7079Z" fill="white"/>
<path d="M86.6719 41.6922H93.3281C93.5768 41.6922 93.8152 41.5935 93.991 41.4177C94.1669 41.2418 94.2656 41.0034 94.2656 40.7547V36.2798C94.2656 35.1484 93.8162 34.0635 93.0163 33.2635C92.2163 32.4635 91.1313 32.0141 90 32.0141C88.8687 32.0141 87.7837 32.4635 86.9837 33.2635C86.1838 34.0635 85.7344 35.1484 85.7344 36.2798V40.7547C85.7344 41.0034 85.8331 41.2418 86.009 41.4177C86.1848 41.5935 86.4232 41.6922 86.6719 41.6922ZM87.6094 36.2798C87.6094 35.6457 87.8612 35.0377 88.3096 34.5893C88.7579 34.141 89.366 33.8891 90 33.8891C90.634 33.8891 91.2421 34.141 91.6904 34.5893C92.1388 35.0377 92.3906 35.6457 92.3906 36.2798V39.8172H87.6094V36.2798Z" fill="white"/>
<path d="M82.6766 29.8921C82.428 29.8921 82.1895 29.9909 82.0137 30.1667C81.8379 30.3425 81.7391 30.581 81.7391 30.8296V31.5499C81.7391 31.7986 81.8379 32.037 82.0137 32.2128C82.1895 32.3887 82.428 32.4874 82.6766 32.4874C82.9253 32.4874 83.1637 32.3887 83.3395 32.2128C83.5154 32.037 83.6141 31.7986 83.6141 31.5499V30.8296C83.6141 30.581 83.5154 30.3425 83.3395 30.1667C83.1637 29.9909 82.9253 29.8921 82.6766 29.8921Z" fill="white"/>
<path d="M82.6766 33.4515C82.428 33.4515 82.1895 33.5503 82.0137 33.7261C81.8379 33.9019 81.7391 34.1403 81.7391 34.389V40.2484C81.7391 40.497 81.8379 40.7354 82.0137 40.9113C82.1895 41.0871 82.428 41.1859 82.6766 41.1859C82.9253 41.1859 83.1637 41.0871 83.3395 40.9113C83.5154 40.7354 83.6141 40.497 83.6141 40.2484V34.389C83.6141 34.1403 83.5154 33.9019 83.3395 33.7261C83.1637 33.5503 82.9253 33.4515 82.6766 33.4515Z" fill="white"/>
<path d="M115.541 48.7344C115.541 48.4858 115.442 48.2473 115.266 48.0715C115.09 47.8957 114.852 47.7969 114.603 47.7969H112.02C111.772 47.7969 111.533 47.8957 111.357 48.0715C111.182 48.2473 111.083 48.4858 111.083 48.7344C111.083 48.9831 111.182 49.2215 111.357 49.3973C111.533 49.5732 111.772 49.6719 112.02 49.6719H114.603C114.852 49.6719 115.09 49.5732 115.266 49.3973C115.442 49.2215 115.541 48.9831 115.541 48.7344Z" fill="white"/>
<path d="M69.6296 42.6969C69.6296 42.4483 69.5308 42.2098 69.355 42.034C69.1792 41.8582 68.9407 41.7594 68.6921 41.7594H66.1077C65.8591 41.7594 65.6206 41.8582 65.4448 42.034C65.269 42.2098 65.1702 42.4483 65.1702 42.6969C65.1702 42.9455 65.269 43.184 65.4448 43.3598C65.6206 43.5356 65.8591 43.6344 66.1077 43.6344H68.6921C68.9407 43.6344 69.1792 43.5356 69.355 43.3598C69.5308 43.184 69.6296 42.9455 69.6296 42.6969Z" fill="white"/>
<path d="M122.553 72.3328V39.3996C123.209 39.3818 123.832 39.1091 124.289 38.6394C124.747 38.1696 125.004 37.5399 125.005 36.884V28.3437C125.005 28.0951 124.906 27.8566 124.73 27.6808C124.554 27.505 124.316 27.4062 124.067 27.4062H120.528C120.279 27.4062 120.041 27.505 119.865 27.6808C119.689 27.8566 119.591 28.0951 119.591 28.3437V30.2531H117.68V28.3437C117.68 28.0951 117.581 27.8566 117.405 27.6808C117.229 27.505 116.991 27.4062 116.742 27.4062H113.203C112.954 27.4062 112.716 27.505 112.54 27.6808C112.364 27.8566 112.266 28.0951 112.266 28.3437V30.2531H110.355V28.3437C110.355 28.0951 110.256 27.8566 110.08 27.6808C109.904 27.505 109.666 27.4062 109.417 27.4062H105.878C105.629 27.4062 105.391 27.505 105.215 27.6808C105.039 27.8566 104.941 28.0951 104.941 28.3437V36.8843C104.942 37.5402 105.198 38.1699 105.656 38.6397C106.114 39.1094 106.737 39.3821 107.392 39.4V44.8046H103.509C103.261 44.8046 103.022 44.9034 102.846 45.0792C102.671 45.255 102.572 45.4935 102.572 45.7421V47.6515H101.752V27.6203H103.341C103.523 27.6202 103.701 27.567 103.854 27.4671C104.006 27.3672 104.126 27.225 104.199 27.0579C104.272 26.8908 104.295 26.7061 104.265 26.5263C104.234 26.3465 104.152 26.1795 104.028 26.0457L90.9375 11.9121V9.64996L97.4131 6.83152C97.5784 6.75956 97.7195 6.64146 97.8193 6.49137C97.9192 6.34129 97.9737 6.16559 97.9763 5.98532C97.9789 5.80505 97.9294 5.62787 97.8338 5.47499C97.7383 5.32212 97.6007 5.20005 97.4375 5.1234L90.8244 2.0173C90.725 1.83388 90.5674 1.68883 90.3763 1.6051C90.1853 1.52136 89.9718 1.50374 89.7696 1.555C89.5674 1.60627 89.3881 1.7235 89.26 1.88814C89.1319 2.05278 89.0624 2.25543 89.0625 2.46402V11.9121L75.9715 26.0457C75.8477 26.1795 75.7655 26.3465 75.735 26.5263C75.7046 26.7061 75.7272 26.8908 75.8002 27.0579C75.8732 27.225 75.9933 27.3672 76.1458 27.4671C76.2984 27.567 76.4767 27.6202 76.659 27.6203H78.2481V47.6515H77.4278V45.7421C77.4278 45.4935 77.329 45.255 77.1532 45.0792C76.9774 44.9034 76.7389 44.8046 76.4903 44.8046H72.6078V39.3996C73.2635 39.3818 73.8863 39.1091 74.3441 38.6394C74.8019 38.1696 75.0585 37.5399 75.0594 36.884V28.3437C75.0594 28.0951 74.9606 27.8566 74.7848 27.6808C74.609 27.505 74.3705 27.4062 74.1219 27.4062H70.5828C70.3342 27.4062 70.0957 27.505 69.9199 27.6808C69.7441 27.8566 69.6453 28.0951 69.6453 28.3437V30.2531H67.7344V28.3437C67.7344 28.0951 67.6356 27.8566 67.4598 27.6808C67.284 27.505 67.0455 27.4062 66.7969 27.4062H63.2578C63.0092 27.4062 62.7707 27.505 62.5949 27.6808C62.4191 27.8566 62.3203 28.0951 62.3203 28.3437V30.2531H60.4094V28.3437C60.4094 28.0951 60.3106 27.8566 60.1348 27.6808C59.959 27.505 59.7205 27.4062 59.4719 27.4062H55.9328C55.6842 27.4062 55.4457 27.505 55.2699 27.6808C55.0941 27.8566 54.9953 28.0951 54.9953 28.3437V36.8843C54.9962 37.5402 55.2528 38.1699 55.7106 38.6397C56.1683 39.1094 56.7912 39.3821 57.4469 39.4V72.3328C56.2776 72.382 55.1725 72.8807 54.362 73.7249C53.5516 74.5692 53.0983 75.6937 53.0969 76.864V77.5359C53.0969 77.7845 53.1956 78.023 53.3715 78.1988C53.5473 78.3746 53.7857 78.4734 54.0344 78.4734H125.966C126.214 78.4734 126.453 78.3746 126.629 78.1988C126.804 78.023 126.903 77.7845 126.903 77.5359V76.864C126.902 75.6937 126.448 74.5692 125.638 73.7249C124.827 72.8807 123.722 72.382 122.553 72.3328ZM90.9375 4.14183L94.7645 5.93871L90.9375 7.60496V4.14183ZM106.816 36.8843V29.2812H108.48V31.1906C108.48 31.4392 108.578 31.6777 108.754 31.8535C108.93 32.0293 109.169 32.1281 109.417 32.1281H113.203C113.452 32.1281 113.69 32.0293 113.866 31.8535C114.042 31.6777 114.141 31.4392 114.141 31.1906V29.2812H115.805V31.1906C115.805 31.4392 115.903 31.6777 116.079 31.8535C116.255 32.0293 116.494 32.1281 116.742 32.1281H120.528C120.777 32.1281 121.015 32.0293 121.191 31.8535C121.367 31.6777 121.466 31.4392 121.466 31.1906V29.2812H123.13V36.8843C123.13 37.055 123.062 37.2187 122.941 37.3394C122.82 37.46 122.657 37.5279 122.486 37.5281H107.459C107.289 37.5279 107.125 37.46 107.004 37.3394C106.884 37.2187 106.816 37.055 106.816 36.8843ZM90 13.6592L101.194 25.7453H86.0937C85.8451 25.7453 85.6066 25.844 85.4308 26.0199C85.255 26.1957 85.1562 26.4341 85.1562 26.6828C85.1562 26.9314 85.255 27.1699 85.4308 27.3457C85.6066 27.5215 85.8451 27.6203 86.0937 27.6203H99.8765V47.6515H99.2297V45.7421C99.2297 45.4935 99.1309 45.255 98.9551 45.0792C98.7793 44.9034 98.5408 44.8046 98.2922 44.8046H92.4515C92.2029 44.8046 91.9644 44.9034 91.7886 45.0792C91.6128 45.255 91.514 45.4935 91.514 45.7421V47.6515H88.4859V45.7421C88.4859 45.4935 88.3871 45.255 88.2113 45.0792C88.0355 44.9034 87.7971 44.8046 87.5484 44.8046H81.7078C81.4592 44.8046 81.2207 44.9034 81.0449 45.0792C80.8691 45.255 80.7703 45.4935 80.7703 45.7421V47.6515H80.1234V27.6203H82.6562C82.9049 27.6203 83.1433 27.5215 83.3191 27.3457C83.495 27.1699 83.5937 26.9314 83.5937 26.6828C83.5937 26.4341 83.495 26.1957 83.3191 26.0199C83.1433 25.844 82.9049 25.7453 82.6562 25.7453H78.8056L90 13.6592ZM75.5531 46.6796V48.589C75.5531 48.8377 75.6519 49.0761 75.8277 49.2519C76.0035 49.4277 76.242 49.5265 76.4906 49.5265H81.7078C81.9564 49.5265 82.1949 49.4277 82.3707 49.2519C82.5465 49.0761 82.6453 48.8377 82.6453 48.589V46.6796H86.6109V48.589C86.6109 48.8377 86.7097 49.0761 86.8855 49.2519C87.0613 49.4277 87.2998 49.5265 87.5484 49.5265H92.4515C92.7002 49.5265 92.9386 49.4277 93.1145 49.2519C93.2903 49.0761 93.389 48.8377 93.389 48.589V46.6796H97.3547V48.589C97.3547 48.8377 97.4534 49.0761 97.6293 49.2519C97.8051 49.4277 98.0435 49.5265 98.2922 49.5265H103.509C103.758 49.5265 103.996 49.4277 104.172 49.2519C104.348 49.0761 104.447 48.8377 104.447 48.589V46.6796H108.103V51.5937H106.325C106.076 51.5937 105.838 51.6925 105.662 51.8683C105.486 52.0441 105.387 52.2826 105.387 52.5312C105.387 52.7799 105.486 53.0183 105.662 53.1941C105.838 53.3699 106.076 53.4687 106.325 53.4687H108.103V61.1781C108.103 61.4267 108.202 61.6652 108.378 61.841C108.554 62.0168 108.792 62.1156 109.041 62.1156C109.289 62.1156 109.528 62.0168 109.704 61.841C109.879 61.6652 109.978 61.4267 109.978 61.1781V57.1062H112.389C112.638 57.1062 112.876 57.0074 113.052 56.8316C113.228 56.6558 113.327 56.4173 113.327 56.1687C113.327 55.9201 113.228 55.6816 113.052 55.5058C112.876 55.33 112.638 55.2312 112.389 55.2312H109.978V45.7421C109.978 45.5331 109.908 45.3301 109.779 45.1654C109.65 45.0008 109.47 44.8839 109.267 44.8334V39.4031H120.678V40.9953H118.198C117.95 40.9953 117.711 41.094 117.536 41.2699C117.36 41.4457 117.261 41.6841 117.261 41.9328C117.261 42.1814 117.36 42.4199 117.536 42.5957C117.711 42.7715 117.95 42.8703 118.198 42.8703H120.678V69.7843H118.347C118.098 69.7843 117.86 69.8831 117.684 70.0589C117.508 70.2347 117.409 70.4732 117.409 70.7218C117.409 70.9705 117.508 71.2089 117.684 71.3847C117.86 71.5606 118.098 71.6593 118.347 71.6593H120.678V72.3281H109.978V64.4531C109.978 64.2044 109.879 63.966 109.704 63.7902C109.528 63.6144 109.289 63.5156 109.041 63.5156C108.792 63.5156 108.554 63.6144 108.378 63.7902C108.202 63.966 108.103 64.2044 108.103 64.4531V67.8859H106.167C105.919 67.8859 105.68 67.9847 105.504 68.1605C105.328 68.3363 105.23 68.5748 105.23 68.8234C105.23 69.072 105.328 69.3105 105.504 69.4863C105.68 69.6621 105.919 69.7609 106.167 69.7609H108.103V72.3281H96.2359V67.8359H100.222C100.471 67.8359 100.709 67.7371 100.885 67.5613C101.061 67.3855 101.159 67.147 101.159 66.8984C101.159 66.6497 101.061 66.4113 100.885 66.2355C100.709 66.0597 100.471 65.9609 100.222 65.9609H96.2298C96.1972 65.065 95.9415 64.1915 95.486 63.4193C95.0305 62.6472 94.3895 62.0009 93.6212 61.539L90.4806 59.664C90.3353 59.5773 90.1692 59.5314 90 59.5314C89.8307 59.5314 89.6647 59.5773 89.5194 59.664L86.3787 61.539C85.583 62.0169 84.9242 62.6921 84.4661 63.4994C84.008 64.3067 83.7662 65.2186 83.764 66.1468V69.1515H81.2125C80.9638 69.1515 80.7254 69.2503 80.5496 69.4261C80.3738 69.6019 80.275 69.8404 80.275 70.089C80.275 70.3377 80.3738 70.5761 80.5496 70.7519C80.7254 70.9277 80.9638 71.0265 81.2125 71.0265H83.764V72.3281H71.8969V66.5968H73.675C73.9236 66.5968 74.1621 66.4981 74.3379 66.3222C74.5137 66.1464 74.6125 65.908 74.6125 65.6593C74.6125 65.4107 74.5137 65.1722 74.3379 64.9964C74.1621 64.8206 73.9236 64.7218 73.675 64.7218H71.8969V46.6796H75.5531ZM94.3609 66.1468V72.3281H85.639V66.1468C85.6403 65.5429 85.7975 64.9495 86.0955 64.4243C86.3936 63.899 86.8222 63.4596 87.34 63.1487L90 61.5606L92.6605 63.1489C93.1781 63.4598 93.6066 63.8992 93.9046 64.4244C94.2025 64.9497 94.3597 65.543 94.3609 66.1468ZM56.8703 36.8843V29.2812H58.5344V31.1906C58.5344 31.4392 58.6331 31.6777 58.8089 31.8535C58.9848 32.0293 59.2232 32.1281 59.4719 32.1281H63.2578C63.5064 32.1281 63.7449 32.0293 63.9207 31.8535C64.0965 31.6777 64.1953 31.4392 64.1953 31.1906V29.2812H65.8594V31.1906C65.8594 31.4392 65.9581 31.6777 66.1339 31.8535C66.3098 32.0293 66.5482 32.1281 66.7969 32.1281H70.5828C70.8314 32.1281 71.0699 32.0293 71.2457 31.8535C71.4215 31.6777 71.5203 31.4392 71.5203 31.1906V29.2812H73.1844V36.8843C73.1842 37.055 73.1163 37.2187 72.9956 37.3394C72.8749 37.46 72.7113 37.5279 72.5406 37.5281H57.5141C57.3434 37.5279 57.1797 37.46 57.059 37.3394C56.9383 37.2187 56.8705 37.055 56.8703 36.8843ZM68.2437 57.264H70.0219V65.4412C69.9864 65.5845 69.9864 65.7342 70.0219 65.8775V69.1515H67.6109C67.3623 69.1515 67.1238 69.2503 66.948 69.4261C66.7722 69.6019 66.6734 69.8404 66.6734 70.089C66.6734 70.3377 66.7722 70.5761 66.948 70.7519C67.1238 70.9277 67.3623 71.0265 67.6109 71.0265H70.0219V72.3281H59.3219V50.1468H61.7953C62.0439 50.1468 62.2824 50.0481 62.4582 49.8722C62.634 49.6964 62.7328 49.458 62.7328 49.2093C62.7328 48.9607 62.634 48.7222 62.4582 48.5464C62.2824 48.3706 62.0439 48.2718 61.7953 48.2718H59.3219V39.4031H70.7328V44.8334C70.5299 44.8839 70.3498 45.0008 70.221 45.1654C70.0922 45.3301 70.0221 45.5331 70.0219 45.7421V55.389H68.2437C67.9951 55.389 67.7566 55.4878 67.5808 55.6636C67.405 55.8394 67.3062 56.0779 67.3062 56.3265C67.3062 56.5752 67.405 56.8136 67.5808 56.9894C67.7566 57.1652 67.9951 57.264 68.2437 57.264ZM54.9844 76.5984C55.051 75.9421 55.3588 75.3339 55.848 74.8915C56.3372 74.449 56.9732 74.2037 57.6328 74.2031H122.367C123.027 74.2037 123.663 74.449 124.152 74.8915C124.641 75.3339 124.949 75.9421 125.016 76.5984H54.9844Z" fill="white"/>
</svg>
