<svg width="128" height="114" viewBox="0 0 128 114" fill="none" xmlns="http://www.w3.org/2000/svg">
<path d="M19.9965 93.064V113H16.4125V104.348H6.19247V113H2.63647V93.064H6.19247V101.408H16.4125V93.064H19.9965ZM24.0681 98.86H27.5401V113H24.0681V98.86ZM27.7361 92.448V95.892H23.8441V92.448H27.7361ZM36.5488 113.224C33.9915 113.224 31.9568 112.627 30.4448 111.432L31.4248 108.968C32.9368 110.088 34.6635 110.648 36.6048 110.648C37.4448 110.648 38.0888 110.508 38.5368 110.228C39.0035 109.948 39.2368 109.556 39.2368 109.052C39.2368 108.623 39.0782 108.287 38.7608 108.044C38.4435 107.783 37.9022 107.559 37.1368 107.372L34.7848 106.84C32.2088 106.28 30.9208 104.964 30.9208 102.892C30.9208 102.033 31.1635 101.277 31.6488 100.624C32.1342 99.952 32.8155 99.4293 33.6928 99.056C34.5702 98.6827 35.5875 98.496 36.7448 98.496C37.7528 98.496 38.7235 98.6547 39.6568 98.972C40.5902 99.2707 41.4115 99.7093 42.1208 100.288L41.0848 102.668C39.6662 101.623 38.2102 101.1 36.7168 101.1C35.9142 101.1 35.2888 101.249 34.8408 101.548C34.3928 101.847 34.1688 102.257 34.1688 102.78C34.1688 103.191 34.2995 103.517 34.5608 103.76C34.8408 104.003 35.3075 104.208 35.9608 104.376L38.3688 104.908C39.7688 105.225 40.7862 105.72 41.4208 106.392C42.0742 107.045 42.4008 107.904 42.4008 108.968C42.4008 110.275 41.8782 111.311 40.8328 112.076C39.7875 112.841 38.3595 113.224 36.5488 113.224ZM49.7115 101.492V107.82C49.7115 109.481 50.4861 110.312 52.0355 110.312C52.4648 110.312 52.9315 110.237 53.4355 110.088V112.86C52.8195 113.084 52.0728 113.196 51.1955 113.196C49.5901 113.196 48.3581 112.748 47.4995 111.852C46.6408 110.956 46.2115 109.668 46.2115 107.988V101.492H43.4955V98.86H46.2115V95.416L49.7115 94.24V98.86H53.4635V101.492H49.7115ZM62.2808 113.224C60.8435 113.224 59.5742 112.925 58.4728 112.328C57.3902 111.731 56.5502 110.881 55.9528 109.78C55.3742 108.66 55.0848 107.353 55.0848 105.86C55.0848 104.367 55.3742 103.069 55.9528 101.968C56.5502 100.848 57.3902 99.9893 58.4728 99.392C59.5742 98.7947 60.8435 98.496 62.2808 98.496C63.6995 98.496 64.9502 98.7947 66.0328 99.392C67.1155 99.9893 67.9462 100.848 68.5248 101.968C69.1222 103.069 69.4208 104.367 69.4208 105.86C69.4208 107.353 69.1222 108.66 68.5248 109.78C67.9462 110.881 67.1155 111.731 66.0328 112.328C64.9502 112.925 63.6995 113.224 62.2808 113.224ZM62.2528 110.48C63.4475 110.48 64.3528 110.097 64.9688 109.332C65.6035 108.548 65.9208 107.391 65.9208 105.86C65.9208 104.348 65.6035 103.2 64.9688 102.416C64.3342 101.613 63.4382 101.212 62.2808 101.212C61.1048 101.212 60.1995 101.613 59.5648 102.416C58.9302 103.2 58.6128 104.348 58.6128 105.86C58.6128 107.391 58.9208 108.548 59.5368 109.332C60.1715 110.097 61.0768 110.48 62.2528 110.48ZM80.0552 98.524C80.5965 98.524 81.0632 98.5987 81.4552 98.748L81.4272 101.94C80.8298 101.697 80.2138 101.576 79.5792 101.576C78.3845 101.576 77.4698 101.921 76.8352 102.612C76.2192 103.303 75.9112 104.217 75.9112 105.356V113H72.4392V102.864C72.4392 101.371 72.3645 100.036 72.2152 98.86H75.4912L75.7712 101.352C76.1258 100.437 76.6858 99.7373 77.4512 99.252C78.2165 98.7667 79.0845 98.524 80.0552 98.524ZM83.404 98.86H86.876V113H83.404V98.86ZM87.072 92.448V95.892H83.18V92.448H87.072ZM97.1168 113.224C95.6421 113.224 94.3634 112.925 93.2808 112.328C92.1981 111.731 91.3674 110.891 90.7888 109.808C90.2101 108.707 89.9208 107.419 89.9208 105.944C89.9208 104.469 90.2194 103.172 90.8168 102.052C91.4328 100.932 92.2914 100.064 93.3928 99.448C94.5128 98.8133 95.8008 98.496 97.2568 98.496C98.2648 98.496 99.2354 98.6547 100.169 98.972C101.121 99.2893 101.877 99.728 102.437 100.288L101.457 102.752C100.859 102.267 100.225 101.903 99.5528 101.66C98.8808 101.399 98.2181 101.268 97.5648 101.268C96.2954 101.268 95.3061 101.669 94.5968 102.472C93.8874 103.256 93.5328 104.395 93.5328 105.888C93.5328 107.381 93.8781 108.52 94.5688 109.304C95.2781 110.088 96.2768 110.48 97.5648 110.48C98.2181 110.48 98.8808 110.349 99.5528 110.088C100.225 109.827 100.859 109.453 101.457 108.968L102.437 111.432C101.839 111.992 101.065 112.431 100.113 112.748C99.1608 113.065 98.1621 113.224 97.1168 113.224ZM118.311 98.86V113H114.867V110.732C114.437 111.516 113.821 112.132 113.019 112.58C112.216 113.009 111.301 113.224 110.275 113.224C109.043 113.224 107.951 112.925 106.999 112.328C106.047 111.731 105.309 110.881 104.787 109.78C104.264 108.679 104.003 107.4 104.003 105.944C104.003 104.488 104.264 103.2 104.787 102.08C105.328 100.941 106.075 100.064 107.027 99.448C107.979 98.8133 109.061 98.496 110.275 98.496C111.301 98.496 112.216 98.72 113.019 99.168C113.821 99.5973 114.437 100.204 114.867 100.988V98.86H118.311ZM111.227 110.48C112.384 110.48 113.28 110.079 113.915 109.276C114.549 108.473 114.867 107.344 114.867 105.888C114.867 104.395 114.549 103.247 113.915 102.444C113.28 101.641 112.375 101.24 111.199 101.24C110.041 101.24 109.136 101.66 108.483 102.5C107.848 103.321 107.531 104.469 107.531 105.944C107.531 107.4 107.848 108.52 108.483 109.304C109.136 110.088 110.051 110.48 111.227 110.48ZM122.123 92.392H125.595V113H122.123V92.392Z" fill="white"/>
<g clip-path="url(#clip0_1_176)">
<path d="M67.7266 69.165C68.7362 68.0719 69.1701 66.7315 69.1701 65.2496C69.1701 63.7634 68.7447 62.4139 67.7266 61.3214C66.7348 60.2557 65.4818 59.7644 64.0383 59.7644C62.5905 59.7644 61.324 60.2423 60.3237 61.3037C59.3007 62.3919 58.8802 63.7372 58.8802 65.2234C58.8802 66.7187 59.3007 68.081 60.328 69.1784C61.324 70.2441 62.5771 70.7354 64.0249 70.7354C65.4769 70.7354 66.7342 70.2398 67.7266 69.165ZM62.4044 67.3999C61.9216 66.7846 61.7757 66.0016 61.7757 65.2362C61.7757 64.4757 61.935 63.7231 62.4221 63.1262C62.8383 62.6129 63.3651 62.3565 64.0249 62.3565C64.6889 62.3565 65.2291 62.6001 65.6411 63.1262C66.1239 63.7365 66.274 64.5019 66.274 65.263C66.274 66.0241 66.1147 66.7846 65.6368 67.3907C65.2205 67.9168 64.6889 68.1695 64.0249 68.1695C63.3565 68.1695 62.8206 67.926 62.4044 67.3999Z" fill="white"/>
<path d="M57.3348 59.9414H52.137C51.783 59.9414 51.473 60.0781 51.2294 60.3351C50.9902 60.5871 50.862 60.8923 50.862 61.242C50.862 61.6089 50.9902 61.9275 51.2514 62.1838C51.4949 62.4139 51.7873 62.5512 52.1236 62.5512H53.337V69.2578C53.337 69.6423 53.4786 69.9786 53.7484 70.2484L53.7532 70.2575L53.7618 70.2618C54.045 70.5139 54.3819 70.6689 54.7628 70.6689C55.1387 70.6689 55.4665 70.5182 55.7277 70.2484C55.9932 69.9743 56.1348 69.6423 56.1348 69.2578V62.5647H57.3348C57.6845 62.5647 57.9946 62.4365 58.2424 62.1838C58.4902 61.9317 58.6232 61.6223 58.6232 61.2683C58.6232 60.91 58.4951 60.5914 58.2467 60.3351C57.9989 60.0781 57.6888 59.9414 57.3348 59.9414Z" fill="white"/>
<path d="M47.2664 67.7667C47.0412 67.9394 46.7665 68.0011 46.4827 68.0011C46.0445 68.0011 45.5354 67.8467 45.1283 67.6959C44.8403 67.5946 44.3532 67.4176 44.0523 67.4176C43.6977 67.4176 43.3882 67.55 43.1532 67.8155C42.9097 68.0853 42.8035 68.4125 42.8035 68.7707V68.8415C42.8035 69.5227 43.3394 69.9518 43.9015 70.2215C44.6633 70.5847 45.5397 70.6952 46.3722 70.6952C47.4526 70.6952 48.5018 70.4339 49.33 69.6997C50.1045 69.01 50.4677 68.125 50.4677 67.0856C50.4677 65.9881 50.0429 65.0946 49.1036 64.5196C48.5237 64.1479 47.7315 63.9001 47.0717 63.7103C46.8062 63.6395 46.5407 63.5596 46.2837 63.4625C46.1952 63.4314 46.0268 63.3697 45.9468 63.3118C45.8632 63.241 45.7655 63.1439 45.7655 63.0243C45.7655 62.8564 45.8498 62.7411 45.978 62.644C46.1641 62.5067 46.3808 62.4536 46.6066 62.4536C46.8233 62.4536 47.1028 62.5244 47.3103 62.5824L47.7046 62.7191C47.9482 62.7991 48.2717 62.901 48.528 62.901C48.8869 62.901 49.1921 62.7594 49.4313 62.4939C49.6706 62.2327 49.7902 61.914 49.7902 61.56C49.7902 60.9454 49.3697 60.5249 48.86 60.2466C48.2271 59.906 47.4965 59.7906 46.7885 59.7906C45.7478 59.7906 44.778 60.0647 43.9766 60.7464C43.224 61.3965 42.8432 62.2327 42.8432 63.2324C42.8432 64.1833 43.1935 64.9756 43.9943 65.4974C44.2336 65.6567 44.5259 65.7806 44.7957 65.8868C45.19 66.037 45.5971 66.1651 46.0048 66.2848C46.3808 66.3952 46.8239 66.5234 47.1822 66.687C47.2798 66.7316 47.4123 66.8066 47.4703 66.9037C47.5234 67.0013 47.5453 67.1161 47.5453 67.2265C47.5453 67.4573 47.4526 67.6251 47.2664 67.7667Z" fill="white"/>
<path d="M82.7932 70.2527C83.0679 70.5182 83.3957 70.6689 83.7759 70.6689C84.1659 70.6689 84.5065 70.5182 84.772 70.2307C85.0332 69.9518 85.1754 69.6161 85.1754 69.2309V65.6476L87.7743 62.091C87.9599 61.839 88.0484 61.5515 88.0484 61.2414C88.0484 60.852 87.8982 60.5163 87.615 60.2508C87.3446 59.9896 87.0126 59.8437 86.636 59.8437C86.1538 59.8437 85.7638 60.0561 85.494 60.4541L83.7759 62.9181L82.0718 60.4541C81.8057 60.0512 81.412 59.8437 80.9292 59.8437C80.5349 59.8437 80.1809 59.981 79.902 60.2643C79.6365 60.5298 79.4857 60.8612 79.4857 61.2414C79.4857 61.5558 79.6054 61.8432 79.7915 62.091L82.3636 65.6476V69.2309C82.3636 69.6289 82.5058 69.9786 82.7932 70.2527Z" fill="white"/>
<path d="M78.5823 63.3563C78.5823 62.3828 78.2418 61.5472 77.5112 60.8966C76.7678 60.2331 75.851 59.9591 74.8592 59.9591H72.2914C71.8972 59.9591 71.5517 60.0958 71.277 60.3747C70.9938 60.6579 70.8608 61.0119 70.8608 61.4099V69.2309C70.8608 69.6246 70.9981 69.9701 71.277 70.2484L71.2819 70.2576L71.2862 70.2618C71.5737 70.5139 71.9057 70.6689 72.2908 70.6689C72.6674 70.6689 73.0037 70.5365 73.2741 70.2661C73.5439 69.9921 73.6769 69.6557 73.6769 69.2706V67.0105L76.1788 70.0891C76.462 70.4388 76.8251 70.6689 77.2811 70.6689C77.6619 70.6689 78.0025 70.5316 78.2863 70.271L78.2949 70.2661L78.2991 70.2576C78.5561 69.9743 78.7068 69.6423 78.7068 69.2578C78.7068 68.9081 78.5781 68.6029 78.3437 68.3423L76.4577 66.2671C76.7763 66.1786 77.0998 66.0596 77.3519 65.8868C78.2198 65.2893 78.5823 64.3957 78.5823 63.3563ZM75.5141 64.024C75.3328 64.1968 75.1247 64.2853 74.872 64.2853H73.6904V62.5824H74.8458C75.0978 62.5824 75.3237 62.6483 75.5056 62.8345L75.5098 62.8387L75.519 62.843C75.6911 62.998 75.7845 63.1793 75.7845 63.4137C75.7845 63.6572 75.6911 63.8519 75.5141 64.024Z" fill="white"/>
<path d="M33.9358 70.271C34.2055 70.545 34.5418 70.6824 34.927 70.6824C35.317 70.6824 35.6533 70.5365 35.9237 70.2533C36.1849 69.9786 36.3265 69.6515 36.3265 69.2712V61.2683C36.3265 60.8746 36.1892 60.5298 35.9145 60.2466C35.6447 59.9768 35.3127 59.8309 34.9276 59.8309C34.5424 59.8309 34.2104 59.9945 33.9443 60.2728C33.6831 60.5517 33.528 60.8838 33.528 61.2683V63.8251H29.8574V61.2683C29.8574 60.8789 29.7207 60.5383 29.4546 60.26C29.1891 59.9811 28.857 59.8309 28.4719 59.8309C28.0819 59.8309 27.7456 59.9902 27.4752 60.2728C27.2097 60.5517 27.0589 60.8838 27.0589 61.2683V69.2712C27.0589 69.66 27.1963 70.0006 27.4752 70.2753C27.7498 70.545 28.0862 70.6824 28.4719 70.6824C28.857 70.6824 29.1933 70.545 29.4588 70.271C29.7292 69.9969 29.8574 69.6564 29.8574 69.2712V66.4355H33.528V69.2706C33.528 69.66 33.6654 69.9963 33.9358 70.271Z" fill="white"/>
<path d="M38.7258 60.2728C38.4646 60.5517 38.3095 60.8838 38.3095 61.2683V69.2578C38.3095 69.6423 38.4469 69.9835 38.7172 70.2575C38.987 70.5316 39.3282 70.6689 39.7091 70.6689C40.0942 70.6689 40.4305 70.5316 40.7009 70.2575C40.9707 69.9878 41.108 69.6557 41.108 69.2706V61.2683C41.108 60.8789 40.9749 60.5383 40.7052 60.2594C40.4397 59.981 40.1076 59.8303 39.7219 59.8303C39.3325 59.8303 38.9962 59.9902 38.7258 60.2728Z" fill="white"/>
<path d="M94.4246 24.9573H35.7814L93.3553 13.8269C93.7654 13.7476 94.128 13.5083 94.3618 13.1623C94.5961 12.8156 94.6828 12.3908 94.6029 11.98L92.8633 2.99564C92.6973 2.14115 91.8709 1.58207 91.017 1.74808L74.518 4.93717C74.4838 4.94266 74.449 4.94877 74.4149 4.9567L24.54 14.5972C24.5345 14.5984 24.5296 14.599 24.5241 14.6003L17.2768 16.001C16.866 16.081 16.5041 16.3196 16.2703 16.6663C16.036 17.0124 15.9493 17.4378 16.0286 17.8479L17.7401 26.684V76.7072C17.7401 77.5776 18.4456 78.2831 19.316 78.2831H49.4008C50.2712 78.2831 50.9768 77.5776 50.9768 76.7072C50.9768 75.8374 50.2712 75.1319 49.4008 75.1319H20.8913V37.2614H27.8865L27.8908 37.262L27.8933 37.2614H40.5935L40.5977 37.262L40.6002 37.2614H53.3052L53.3089 37.262L53.312 37.2614H66.0122L66.0158 37.262L66.0189 37.2614H78.7191L78.7227 37.262L78.7258 37.2614H92.8487V75.1319H63.5866C62.7163 75.1319 62.0107 75.8374 62.0107 76.7072C62.0107 77.5776 62.7163 78.2831 63.5866 78.2831H94.4246C95.2944 78.2831 95.9999 77.5776 95.9999 76.7072V26.5332C95.9999 25.6629 95.2944 24.9573 94.4246 24.9573ZM69.1707 34.1101L73.6763 28.1086H82.4422L77.9366 34.1101H69.1707ZM56.4626 34.1101L60.9652 28.1086H69.7353L65.2297 34.1101H56.4626ZM43.752 34.1101L48.2576 28.1086H57.0253L52.5228 34.1101H43.752ZM31.0451 34.1101L35.5507 28.1086H44.3172L39.8116 34.1101H31.0451ZM20.8913 26.5332C20.8913 25.6458 21.6146 24.9237 22.5039 24.9237C23.3925 24.9237 24.1158 25.6458 24.1158 26.5332C24.1158 27.4207 23.3925 28.1427 22.5039 28.1427C21.6146 28.1427 20.8913 27.4207 20.8913 26.5332ZM36.9466 15.409L43.2485 20.304L34.8818 21.9214L28.583 17.0258L36.9466 15.409ZM49.4228 12.9975L55.7241 17.8919L47.3623 19.5087L41.0604 14.6137L49.4228 12.9975ZM61.899 10.586L68.1997 15.4804L59.8378 17.0966L53.5366 12.2028L61.899 10.586ZM74.3795 8.17386L80.6765 13.0683L72.3134 14.6851L66.0128 9.79069L74.3795 8.17386ZM91.2093 11.0321L84.789 12.273L78.492 7.37858L90.0686 5.14103L91.2093 11.0321ZM24.4704 17.8205L30.7698 22.7167L26.2447 23.5913C25.3719 22.4848 24.02 21.7725 22.5039 21.7725C21.6365 21.7725 20.8242 22.0063 20.1229 22.4121L19.4228 18.7964L24.4704 17.8205ZM20.8913 31.0126C21.3955 31.1945 21.9381 31.294 22.5039 31.294C24.5778 31.294 26.3454 29.9616 26.9979 28.1086H31.6103L27.1047 34.1101H20.8913V31.0126ZM81.8776 34.1101L86.3832 28.1086H92.8487V34.1101H81.8776Z" fill="white"/>
<path d="M86.4901 54.0405C87.3604 54.0405 88.066 53.3356 88.066 52.4652V46.0199C88.066 45.1496 87.3604 44.444 86.4901 44.444H26.3643C25.494 44.444 24.7884 45.1496 24.7884 46.0199V52.4652C24.7884 53.3356 25.494 54.0405 26.3643 54.0405H86.4901ZM84.9148 50.8893H67.3849V47.5952H84.9148V50.8893ZM64.2336 50.8893H46.0177V47.5952H64.2336V50.8893ZM27.9403 47.5952H42.8664V50.8893H27.9403V47.5952Z" fill="white"/>
<path d="M56.5511 75.1317H56.5249C55.6545 75.1317 54.9489 75.8367 54.9489 76.7071C54.9489 77.5774 55.6545 78.283 56.5249 78.283H56.5511C57.4215 78.283 58.127 77.5774 58.127 76.7071C58.127 75.8367 57.4215 75.1317 56.5511 75.1317Z" fill="white"/>
</g>
<defs>
<clipPath id="clip0_1_176">
<rect width="80" height="80" fill="white" transform="translate(16)"/>
</clipPath>
</defs>
</svg>
